<svg width="48" height="48" viewBox="0 0 48 48" fill="none" xmlns="http://www.w3.org/2000/svg">
<g clip-path="url(#clip0_184_11)">
<path fill-rule="evenodd" clip-rule="evenodd" d="M25.7839 27.6698C25.5297 27.7687 25.4685 27.8848 25.2463 28.0367C22.7543 29.7409 20.9509 27.8752 20.966 27.8289C19.1826 25.9397 17.6978 21.3919 16.7646 18.9425C16.1212 17.2535 15.2756 14.7953 13.3979 14.1387C12.1936 13.7175 11.2222 14.3329 10.6816 14.9524C10.7514 14.9888 10.6659 14.9831 10.7871 14.9524C10.9875 14.9016 11.1928 14.7074 11.7589 14.7036C12.0407 14.7017 12.7041 14.8206 12.9088 15.053C15.5238 16.574 15.9549 21.5488 16.5042 24.2579C16.7994 26.6023 18.4649 30.3004 21.1755 30.5307C23.0358 30.6888 24.2455 29.4629 25.3886 28.2387C25.5345 28.0665 25.6952 27.8993 25.7839 27.6698Z" fill="#00ABBD"/>
<path fill-rule="evenodd" clip-rule="evenodd" d="M40.2039 22.4136C38.2591 21.994 36.8119 20.9551 35.3642 19.664C34.4133 18.8159 33.3179 17.3387 32.1245 16.9309C31.1777 16.7823 30.2752 17.321 29.7109 18.0724L29.7708 18.0926C29.8099 18.0452 30.8547 17.489 31.7095 17.8321C32.4696 17.9531 33.431 19.4335 33.9388 20.1012C36.1905 23.0626 38.9853 25.9156 43.0142 24.1054C44.1802 23.5815 47.1424 21.4373 48.0005 19.0706C47.6361 18.5775 47.3014 19.1309 47.0855 19.4017C45.2773 21.6693 43.1115 22.5922 40.2039 22.4136Z" fill="#00ABBD"/>
<path fill-rule="evenodd" clip-rule="evenodd" d="M29.0307 21.477C29.5472 20.2961 30.5035 17.9771 31.7095 17.8321C30.7198 17.4162 29.9952 18.0139 29.711 18.0724C28.965 18.6239 26.872 21.6243 26.0764 22.7316C24.9988 24.2312 22.9458 28.018 20.9669 27.8289C20.9518 27.8752 22.7552 29.741 25.2472 28.0367C25.4694 27.8848 25.5105 27.7687 25.7648 27.6698C26.5894 27.2015 28.7844 22.0401 29.0307 21.477Z" fill="#66C3D0"/>
<path fill-rule="evenodd" clip-rule="evenodd" d="M10.0016 17.5994C10.5611 16.4832 11.4634 14.926 12.9093 15.053C12.7046 14.8206 12.0413 14.7017 11.7594 14.7036C11.1934 14.7075 10.988 14.9017 10.7876 14.9525C8.73436 15.4722 2.96779 32.7692 0.357111 33.4901C0.245372 33.5475 0.0997258 33.5951 0 33.6334C1.10111 33.993 2.32134 34.2834 3.44202 33.8404C5.41659 33.0599 6.02928 29.8919 6.53853 27.956C7.4632 24.4413 8.36658 20.8615 10.0016 17.5994Z" fill="#66C3D0"/>
</g>
<defs>
<clipPath id="clip0_184_11">
<rect width="48" height="48" fill="white"/>
</clipPath>
</defs>
</svg>
