<svg width="392" height="243" viewBox="0 0 392 243" fill="none" xmlns="http://www.w3.org/2000/svg">
<path fill-rule="evenodd" clip-rule="evenodd" d="M210.1 151.713C208.028 152.521 207.53 153.47 205.72 154.712C185.414 168.639 170.719 153.392 170.842 153.013C156.311 137.574 144.212 100.408 136.608 80.3913C131.365 66.5888 124.475 46.4991 109.175 41.1333C99.3617 37.6913 91.4463 42.7203 87.042 47.783C87.6101 48.0808 86.9139 48.034 87.9011 47.7834C89.5338 47.3684 91.2074 45.7814 95.8196 45.75C98.1164 45.7341 103.521 46.7062 105.189 48.6054C126.497 61.0352 130.01 101.691 134.486 123.83C136.892 142.989 150.462 173.211 172.549 175.093C187.708 176.385 197.565 166.367 206.879 156.362C208.068 154.955 209.377 153.589 210.1 151.713Z" fill="#00ABBD"/>
<path fill-rule="evenodd" clip-rule="evenodd" d="M327.592 108.758C311.745 105.329 299.953 96.8389 288.157 86.2872C280.408 79.3563 271.482 67.2845 261.759 63.9521C254.044 62.7377 246.689 67.1401 242.092 73.2804L242.58 73.4459C242.898 73.0581 251.412 68.5129 258.377 71.3169C264.57 72.306 272.404 84.4039 276.541 89.8604C294.89 114.062 317.662 137.377 350.491 122.584C359.992 118.303 384.129 100.779 391.121 81.4381C388.152 77.4087 385.425 81.9313 383.666 84.1439C368.932 102.675 351.284 110.218 327.592 108.758Z" fill="#00ABBD"/>
<path fill-rule="evenodd" clip-rule="evenodd" d="M236.549 101.104C240.758 91.4532 248.55 72.5015 258.377 71.317C250.312 67.9177 244.408 72.8023 242.092 73.2804C236.014 77.7871 218.959 102.308 212.476 111.357C203.696 123.612 186.967 154.559 170.843 153.013C170.72 153.392 185.415 168.639 205.72 154.711C207.53 153.47 207.866 152.521 209.937 151.713C216.656 147.886 234.542 105.706 236.549 101.104Z" fill="#66C3D0"/>
<path fill-rule="evenodd" clip-rule="evenodd" d="M81.4964 69.4153C86.0553 60.293 93.4072 47.567 105.19 48.6056C103.522 46.7064 98.1165 45.7343 95.8197 45.7502C91.2075 45.7816 89.534 47.3686 87.9012 47.7836C71.1704 52.0313 24.1826 193.386 2.90986 199.278C1.99937 199.747 0.812598 200.136 0 200.449C8.97222 203.387 18.915 205.761 28.0467 202.141C44.1362 195.762 49.1286 169.872 53.2781 154.052C60.8126 125.329 68.1736 96.0742 81.4964 69.4153Z" fill="#66C3D0"/>
</svg>
