<svg width="718" height="607" viewBox="0 0 718 607" fill="none" xmlns="http://www.w3.org/2000/svg">
<path d="M0 555V588H5.97034H11.9407L11.9949 574.025L12.0764 560.077L18.3181 559.997L24.5598 559.943L34.438 573.972L44.3433 588H51.2363C56.8539 588 58.1022 587.947 57.9937 587.653C57.9123 587.466 52.5932 579.77 46.1615 570.551L34.4651 553.824L45.863 537.979L57.2338 522.134L50.8293 522.053C47.0842 522.027 44.3162 522.107 44.1262 522.24C43.9634 522.374 39.6213 528.573 34.4651 536.002L25.1025 549.522L18.5895 549.442L12.0764 549.389L11.9949 535.681L11.9407 522H5.97034H0V555Z" fill="#C52048"/>
<path d="M80.9391 537.17C77.5195 537.467 72.7805 538.548 69.7647 539.736C67.5299 540.601 63.5717 542.897 63.5717 543.302C63.5717 543.437 64.568 545.409 65.7797 547.706C67.9068 551.704 67.9876 551.812 68.5261 551.433C72.6189 548.489 77.708 546.976 83.4702 546.976C88.4246 546.976 91.3057 547.976 93.5406 550.488C95.0216 552.163 95.8293 554.189 96.0717 556.836L96.2332 558.808L86.4321 558.943C75.6616 559.078 74.4499 559.214 70.5995 560.807C66.7221 562.428 63.9756 565.184 62.7639 568.668C62.0369 570.749 61.7676 574.855 62.2254 577.043C63.3294 582.419 68.0145 586.795 74.4768 588.47C77.1425 589.172 84.1434 589.172 87.0783 588.497C90.0941 587.767 93.2175 586.12 95.1023 584.229L96.6641 582.662L96.7448 585.552L96.8256 588.443L102.426 588.524L108 588.578V573.045C108 555.999 107.865 553.541 106.627 549.84C105.55 546.625 104.338 544.68 102.049 542.573C97.4988 538.332 89.9325 536.387 80.9391 537.17ZM96.1525 569.722C96.1525 572.64 96.0986 572.829 95.3177 574.233C93.0021 578.285 88.7208 580.474 83.0663 580.474C78.6235 580.474 75.5539 579.042 74.2345 576.367C72.5381 572.964 74.046 568.804 77.4387 567.507C79.1081 566.859 80.5891 566.75 88.29 566.723L96.1525 566.696V569.722Z" fill="#C52048"/>
<path d="M146.357 537.342C142.195 538.126 138.589 539.858 135.885 542.401L134.135 544.024V540.75V537.477H128.568H123V572.239V607H128.833H134.665V594.664V582.329L136.203 583.763C140.843 588.091 147.55 589.903 154.974 588.848C163.643 587.631 170.854 581.977 174.036 573.916C176.899 566.747 176.608 557.306 173.32 550.57C170.51 544.781 164.969 539.966 159.057 538.18C155.239 537.017 150.016 536.666 146.357 537.342ZM153.754 547.649C157.466 548.758 160.568 551.301 162.291 554.682C163.776 557.549 164.173 559.632 164.014 563.853C163.882 567.883 163.378 569.696 161.681 572.374C158.897 576.783 154.815 578.974 149.38 578.974C142.486 578.974 137.157 575.079 135.169 568.587C134.4 566.098 134.215 561.742 134.771 559.118C136.097 552.842 140.525 548.298 146.41 547.216C148.24 546.891 151.951 547.108 153.754 547.649Z" fill="#C52048"/>
<path d="M337.159 537.375C325.376 539.21 316.848 547.602 315.288 558.936C313.351 572.888 321.341 584.95 334.765 588.269C338.961 589.295 345.472 589.241 349.83 588.107C357.281 586.138 363.146 581.388 366.347 574.642C368.473 570.243 369.253 566.033 368.93 561.122C368.284 551.623 363.603 544.364 355.371 540.1C350.152 537.402 343.427 536.376 337.159 537.375ZM345.229 547.359C350.96 548.439 355.102 552.46 356.582 558.289C357.174 560.636 357.174 565.386 356.555 567.733C355.156 573.158 351.659 576.828 346.305 578.42C343.75 579.175 339.634 579.067 336.944 578.15C333.177 576.855 330.46 574.534 328.712 571.134C327.609 568.921 327.125 567.005 326.936 564.09C326.237 552.918 334.576 545.309 345.229 547.359Z" fill="#C52048"/>
<path d="M460.386 537.27C454.269 538.082 449.269 540.569 445.014 544.923C441.264 548.79 439.029 553.279 438.205 558.606C437.779 561.526 438.045 567.394 438.737 570.098C441.051 579.13 448.125 585.998 457.567 588.405C459.562 588.919 460.599 589 464.695 589C469.003 588.973 469.748 588.919 472.142 588.27C479.881 586.161 485.998 581.023 489.057 574.1C490.706 570.369 491.025 568.476 490.999 562.797C490.999 558.011 490.945 557.497 490.28 555.28C488.153 548.195 483.685 542.922 477.195 539.785C472.301 537.433 466.158 536.486 460.386 537.27ZM469.376 547.762C475.785 549.79 479.456 555.361 479.456 563.068C479.456 568.99 477.275 573.749 473.312 576.426C471.211 577.859 469.323 578.535 466.503 578.914C457.062 580.131 449.641 573.181 449.668 563.095C449.695 558.2 450.945 554.685 453.817 551.602C456.078 549.168 458.87 547.681 462.301 547.14C463.844 546.897 467.674 547.249 469.376 547.762Z" fill="#C52048"/>
<path d="M690.875 537.155C685.077 537.695 679.064 539.613 674.993 542.207L673.456 543.207L675.128 546.368C676.045 548.098 677.096 550.043 677.447 550.664L678.121 551.826L679.226 551.043C681.087 549.773 683.567 548.638 686.075 547.881C689.257 546.909 695.566 546.666 698.29 547.368C703.17 548.638 705.812 551.772 706.055 556.609L706.19 558.851H697.589C686.56 558.851 684.107 559.203 679.766 561.283C676.152 562.985 673.887 565.498 672.647 569.119C671.784 571.659 671.784 575.847 672.647 578.414C674.292 583.25 678.363 586.763 684.242 588.357C687.1 589.167 694.515 589.221 697.346 588.465C700.581 587.627 703.062 586.276 705.111 584.223L706.918 582.412V585.493V588.573H712.445H718L717.919 570.929C717.838 553.664 717.811 553.258 717.218 551.178C715.304 544.369 711.151 540.235 704.168 538.208C700.555 537.155 695.324 536.749 690.875 537.155ZM706.109 569.848C706.109 572.874 706.055 573.118 705.327 574.415C704.356 576.117 702.226 578.062 700.366 578.954C697.912 580.143 695.809 580.548 692.492 580.413C689.985 580.305 689.284 580.197 687.909 579.548C684.916 578.17 683.621 576.36 683.621 573.442C683.621 571.551 684.08 570.362 685.32 569.038C687.181 567.011 688.691 566.741 698.236 566.714L706.109 566.687V569.848Z" fill="#C52048"/>
<path d="M192.824 537.6C192.824 540.245 191.964 559.009 191.749 561.273C190.97 569.127 189.68 573.6 187.503 576.055C186.213 577.5 185.004 578.073 182.8 578.318L181 578.509V589.255V600H186.374H191.749V594.273V588.545H211.366H230.982V594.273V600H236.491H242V589.227V578.482L238.319 578.4L234.61 578.318L234.53 557.645L234.476 537H213.65H192.824V537.6ZM222.652 562.773V578.455H210.291C203.492 578.455 197.93 578.4 197.93 578.345C197.93 578.291 198.333 577.609 198.843 576.845C201.1 573.464 202.148 568.473 202.767 558.136C202.901 555.736 203.035 552.464 203.035 550.855C203.035 549.273 203.116 547.773 203.196 547.527C203.331 547.145 204.459 547.091 213.005 547.091H222.652V562.773Z" fill="#C52048"/>
<path d="M252 562.5V588H257.507L262.987 587.973L276.957 571.27C284.635 562.095 291.01 554.567 291.145 554.54C291.254 554.54 291.335 562.068 291.335 571.27V588H297.168H303V562.5V537H297.656H292.285L278.178 553.757L264.072 570.514L263.99 553.757L263.936 537H257.968H252V562.5Z" fill="#C52048"/>
<path d="M385.103 539.223C385.022 540.47 384.754 545.811 384.539 551.098C384.056 562.376 383.761 565.982 383.036 569.669C381.802 575.932 379.628 578.372 375.362 578.29L373.456 578.236L373.295 580.459C373.188 581.679 373.107 583.903 373.054 585.367L373 588.051L374.342 588.43C376.408 588.999 380.594 589.189 382.285 588.783C387.518 587.535 390.711 583.279 392.724 574.874C393.797 570.401 394.334 565.006 395.086 550.691L395.273 547.167L404.719 547.085L414.192 547.031L414.246 567.554L414.327 588.105L420.177 588.186L426 588.24V562.62V537H405.632H385.264L385.103 539.223Z" fill="#C52048"/>
<path d="M503 562.5V588H508.917H514.834V567.492V546.984H528.417H542V541.992V537H522.5H503V562.5Z" fill="#C52048"/>
<path d="M551.054 562.419L551.135 587.865L556.532 587.946L561.929 588L575.96 571.216L589.992 554.405L590.073 571.189L590.127 588H596.063H602V562.5V537L596.549 537.027H591.071L577.04 553.811L563.008 570.595L562.927 553.784L562.873 537H556.937H551L551.054 562.419Z" fill="#C52048"/>
<path d="M619 562.5V588H624.664H630.328V577.746V567.492H634.912H639.469L647.03 577.746L654.591 588H661.282C664.97 588 668 587.946 668 587.865C668 587.811 663.785 581.983 658.622 574.913C653.484 567.843 649.19 561.879 649.138 561.69C649.059 561.475 652.799 556.159 657.778 549.413C662.599 542.883 666.604 537.405 666.63 537.243C666.709 537.081 664.496 537.027 660.597 537.054L654.459 537.135L647.083 547.47L639.706 557.778L635.096 557.724L630.46 557.643L630.381 547.308L630.328 537H624.664H619V562.5Z" fill="#C52048"/>
<path d="M382.945 0.226961C374.969 0.974646 364.524 4.62244 357.093 9.24449C340.802 19.3949 330.833 36.365 328.998 57.119C328.635 61.1972 328.862 68.7194 329.474 72.7977C331.309 85.2138 336.067 96.0665 343.363 104.518C348.279 110.25 354.691 114.781 361.579 117.41C370.483 120.808 381.472 121.171 392.121 118.452C401.773 115.982 411.696 109.774 418.924 101.685C428.463 91.014 434.308 77.6463 435.872 62.9418C436.325 58.6596 436.189 50.5257 435.622 46.8553C434.263 38.087 431.182 30.089 426.333 22.8388C423.75 18.9644 422.005 16.8573 418.72 13.64C410.473 5.59669 401.025 1.11059 390.421 0.181647C387.453 -0.067581 385.981 -0.067581 382.945 0.226961Z" fill="#C52048"/>
<path d="M241.677 133.632C210.07 135.58 181.749 146.546 160.814 164.921C128.709 193.107 115.522 237.356 125.016 284.936C130.544 312.668 143.753 339.97 163.057 363.601C170.896 373.208 181.183 383.562 190.857 391.628C212.427 409.641 232.999 420.856 253.867 426.022C277.045 431.754 299.929 429.805 318.485 420.539C325.984 416.778 336.973 409.913 342.388 405.585C344.45 403.931 347.373 401.099 347.373 400.736C347.373 400.465 344.336 398.221 340.779 395.888C336.248 392.874 330.81 389.702 318.938 383.087C300.359 372.732 289.982 366.252 280.081 358.821C264.47 347.084 250.695 333.286 238.618 317.268C234.835 312.283 233.271 309.949 231.006 306.03C221.716 289.921 217.094 269.665 218.454 251.109C219.745 233.686 225.704 218.981 235.537 208.876C239.865 204.435 243.648 201.694 248.927 199.111C255.815 195.735 262.295 194.217 270.814 193.968C290.956 193.379 310.804 200.901 328.069 215.719C334.186 220.952 338.944 225.824 347.599 235.589C353.649 242.409 357.84 246.623 359.585 247.665L360.219 248.05L364.841 242.68C374.924 230.944 380.089 225.937 387.476 220.748C394.749 215.651 405.397 210.281 414.777 206.996C424.973 203.416 434.127 201.739 443.552 201.762C467.093 201.784 483.179 212.433 490.203 232.621C492.763 239.984 493.828 247.189 493.851 257C493.851 266.81 492.854 274.536 490.294 284.641C487.461 295.811 483.496 305.509 476.745 317.608C468.452 332.471 460.205 344.207 448.333 358.05C420.578 390.359 388.11 421.015 351.904 448.996C344.54 454.706 343.906 455.227 338.672 460.007L333.937 464.312L334.82 464.471C335.296 464.561 337.494 464.788 339.669 464.992C341.844 465.196 348.641 465.898 354.736 466.578C360.853 467.258 367.583 467.96 369.69 468.141C386.932 469.705 398.985 468.866 414.12 465.128C434.534 460.053 452.637 451.783 472.757 438.325C493.805 424.255 515.012 405.109 533.501 383.54C553.19 360.588 569.389 335.121 579.721 310.924C596.419 271.795 599.773 229.426 588.761 196.007C580.673 171.424 565.153 153.072 544.512 143.714C527.995 136.215 507.218 133.541 482.998 135.807C475.725 136.487 465.461 138.141 457.713 139.885C440.108 143.85 426.242 148.789 410.087 156.878C399.982 161.931 397.082 163.811 384.53 173.395C379.5 177.247 375.49 180.102 373.36 181.325L372.273 181.959L371.208 181.189C369.35 179.875 367.741 178.516 364.275 175.344C355.189 167.006 344.246 159.665 330.833 152.913C322.427 148.676 315.675 145.867 306.476 142.785C292.316 138.073 278.789 135.263 263.881 133.972C259.055 133.541 246.163 133.36 241.677 133.632Z" fill="#C52048"/>
</svg>
