<svg width="392" height="243" viewBox="0 0 392 243" fill="none" xmlns="http://www.w3.org/2000/svg">
<path d="M208.232 0.11775C204.099 0.505235 198.686 2.39569 194.835 4.79105C186.392 10.0514 181.226 18.8462 180.275 29.6018C180.087 31.7154 180.204 35.6137 180.521 37.7273C181.472 44.1618 183.938 49.7862 187.719 54.166C190.267 57.1367 193.59 59.4851 197.16 60.8472C201.774 62.6085 207.469 62.7963 212.988 61.3873C217.99 60.1074 223.133 56.8901 226.878 52.6983C231.822 47.1678 234.851 40.24 235.661 32.6195C235.896 30.4003 235.826 26.1849 235.532 24.2827C234.828 19.7386 233.231 15.5937 230.718 11.8362C229.38 9.82835 228.475 8.73635 226.773 7.06899C222.499 2.90059 217.602 0.575687 212.107 0.0942662C210.569 -0.0348953 209.806 -0.0348953 208.232 0.11775Z" fill="#C52048"/>
<path d="M135.022 69.2546C118.642 70.2644 103.965 75.9475 93.1152 85.4703C76.4768 100.077 69.643 123.009 74.5629 147.667C77.4279 162.04 84.2735 176.189 94.2776 188.436C98.3403 193.414 103.671 198.78 108.685 202.96C119.863 212.295 130.525 218.107 141.339 220.785C153.351 223.755 165.211 222.746 174.827 217.943C178.714 215.994 184.409 212.436 187.215 210.193C188.284 209.336 189.798 207.868 189.798 207.681C189.798 207.54 188.225 206.377 186.382 205.168C184.033 203.606 181.215 201.962 175.062 198.534C165.434 193.168 160.056 189.809 154.925 185.958C146.835 179.876 139.696 172.725 133.437 164.423C131.476 161.84 130.666 160.631 129.492 158.599C124.678 150.251 122.282 139.753 122.987 130.137C123.656 121.107 126.744 113.487 131.84 108.25C134.083 105.948 136.044 104.527 138.78 103.189C142.349 101.439 145.707 100.653 150.122 100.523C160.561 100.218 170.847 104.117 179.794 111.796C182.965 114.508 185.43 117.033 189.916 122.093C193.051 125.628 195.223 127.812 196.127 128.352L196.456 128.552L198.852 125.769C204.077 119.686 206.754 117.091 210.582 114.402C214.351 111.761 219.87 108.978 224.731 107.275C230.015 105.42 234.758 104.551 239.643 104.563C251.843 104.574 260.18 110.093 263.82 120.555C265.147 124.371 265.698 128.105 265.71 133.19C265.71 138.274 265.194 142.278 263.867 147.515C262.399 153.304 260.344 158.329 256.845 164.599C252.548 172.302 248.273 178.384 242.121 185.559C227.737 202.303 210.911 218.19 192.147 232.691C188.331 235.65 188.002 235.92 185.29 238.398L182.835 240.629L183.293 240.711C183.54 240.758 184.679 240.875 185.806 240.981C186.933 241.086 190.456 241.45 193.615 241.803C196.785 242.155 200.272 242.519 201.364 242.613C210.3 243.423 216.547 242.989 224.39 241.051C234.97 238.421 244.352 234.135 254.778 227.161C265.687 219.869 276.677 209.947 286.259 198.768C296.462 186.874 304.858 173.676 310.212 161.135C318.866 140.857 320.604 118.9 314.897 101.58C310.705 88.8402 302.662 79.3292 291.965 74.4798C283.405 70.5932 272.638 69.2077 260.086 70.3819C256.317 70.7341 250.998 71.5913 246.982 72.4954C237.858 74.5502 230.672 77.11 222.3 81.3019C217.063 83.9203 215.56 84.8949 209.055 89.8618C206.449 91.8579 204.37 93.3374 203.267 93.9715L202.703 94.3002L202.151 93.901C201.188 93.22 200.354 92.5154 198.558 90.8716C193.849 86.5505 188.178 82.7461 181.227 79.247C176.871 77.0513 173.371 75.5953 168.604 73.9984C161.266 71.556 154.256 70.1 146.529 69.4308C144.028 69.2077 137.347 69.1137 135.022 69.2546Z" fill="#C52048"/>
</svg>
