<svg width="100" height="100" viewBox="0 0 100 100" fill="none" xmlns="http://www.w3.org/2000/svg">
<g clip-path="url(#clip0_184_11)">
<path fill-rule="evenodd" clip-rule="evenodd" d="M53.7169 57.6454C53.1873 57.8514 53.0598 58.0933 52.5969 58.4098C47.4053 61.9603 43.6482 58.0733 43.6796 57.9768C39.9642 54.0411 36.871 44.5664 34.9267 39.4635C33.5863 35.9449 31.8247 30.8235 27.9129 29.4556C25.4038 28.5781 23.38 29.8602 22.2539 31.1508C22.3991 31.2267 22.2211 31.2148 22.4736 31.1509C22.891 31.0451 23.3189 30.6405 24.4981 30.6325C25.0854 30.6285 26.4673 30.8763 26.8938 31.3604C32.3417 34.5291 33.2398 44.8934 34.3843 50.5374C34.9993 55.4214 38.469 63.1258 44.1161 63.6057C47.9918 63.935 50.512 61.3811 52.8935 58.8307C53.1974 58.4718 53.5322 58.1236 53.7169 57.6454Z" fill="#00ABBD"/>
<path fill-rule="evenodd" clip-rule="evenodd" d="M83.7578 46.695C79.7061 45.8208 76.6911 43.6565 73.6752 40.9666C71.694 39.1997 69.4119 36.1223 66.9258 35.2728C64.9533 34.9632 63.0729 36.0855 61.8975 37.6508L62.0222 37.693C62.1037 37.5941 64.2803 36.4354 66.0611 37.1503C67.6446 37.4024 69.6476 40.4865 70.7054 41.8775C75.3966 48.047 81.219 53.9908 89.6126 50.2195C92.0418 49.1282 98.213 44.661 100.001 39.7304C99.2416 38.7032 98.5443 39.8562 98.0945 40.4202C94.3274 45.1444 89.8154 47.0671 83.7578 46.695Z" fill="#00ABBD"/>
<path fill-rule="evenodd" clip-rule="evenodd" d="M60.4804 44.7438C61.5565 42.2835 63.5487 37.4522 66.0614 37.1503C63.9994 36.2837 62.4898 37.5289 61.8977 37.6508C60.3437 38.7997 55.9832 45.0507 54.3256 47.3575C52.0807 50.4817 47.8035 58.3709 43.6809 57.9768C43.6495 58.0733 47.4066 61.9603 52.5982 58.4098C53.0611 58.0933 53.1468 57.8515 53.6764 57.6455C55.3944 56.6698 59.9673 45.9169 60.4804 44.7438Z" fill="#66C3D0"/>
<path fill-rule="evenodd" clip-rule="evenodd" d="M20.8367 36.6654C22.0023 34.3399 23.882 31.0957 26.8945 31.3605C26.468 30.8763 25.0861 30.6285 24.4988 30.6326C23.3196 30.6406 22.8917 31.0451 22.4743 31.1509C18.1966 32.2338 6.1829 68.2691 0.743981 69.771C0.511191 69.8906 0.207762 69.9898 0 70.0696C2.29398 70.8186 4.83612 71.4238 7.17088 70.5009C11.2846 68.8749 12.561 62.2747 13.6219 58.2417C15.5483 50.9193 17.4304 43.4615 20.8367 36.6654Z" fill="#66C3D0"/>
</g>
<defs>
<clipPath id="clip0_184_11">
<rect width="100" height="100" fill="white"/>
</clipPath>
</defs>
</svg>
