<svg width="231" height="188" viewBox="0 0 231 188" fill="none" xmlns="http://www.w3.org/2000/svg">
<path fill-rule="evenodd" clip-rule="evenodd" d="M40.1922 186.758C58.3449 187.91 78.2116 186.815 96.6587 187.062C96.7097 180.137 96.2153 133.751 96.9081 131.174C98.7556 130.724 131.805 130.724 133.652 131.174C134.342 133.741 133.85 180.049 133.902 187.062C152.349 186.814 172.215 187.91 190.368 186.758C193.794 186.692 196.942 182.877 197.521 179.505C198.065 176.345 197.674 123.102 197.693 112.122C197.699 108.63 198.352 107.578 196.282 105.864C190.67 101.214 185.681 96.9118 180.111 92.2712C174.708 87.7698 169.257 83.3002 163.911 78.7005C162.485 77.4736 161.407 76.531 159.978 75.3964C151.184 68.4118 140.593 58.861 131.571 51.5336C129.4 49.7701 117.09 38.9916 115.282 37.9526C113.387 39.0408 109.299 42.9216 107.275 44.5517C104.439 46.8357 102.043 48.9854 99.2004 51.3628C93.7836 55.8914 88.3989 60.3501 83.0305 64.9506L34.4907 105.692C32.305 107.509 32.8501 107.508 32.8682 111.349C32.9207 122.718 32.5227 175.786 32.9975 179.169C33.5013 182.76 36.6799 186.69 40.1937 186.757L40.1922 186.758Z" fill="#FEFEFE"/>
<path fill-rule="evenodd" clip-rule="evenodd" d="M115.28 25.1228C118.982 27.6539 148.104 53.013 152.81 56.8557C164.329 66.261 179.256 79.2668 190.514 88.9821L211.548 106.871C213.32 108.256 216.644 112.046 220.272 108.923C221.412 107.943 223.231 105.586 224.348 104.2C232.959 93.5073 234.655 95.2013 216.719 80.7642L197.711 64.7866C197.359 45.787 198.172 24.3948 197.696 6.0252C197.622 3.18828 196.781 1.49619 194.639 0.732725C191.802 -0.278299 164.846 0.0338908 163.09 1.18702C159.792 3.35269 161.069 11.5459 161.069 16.0734C161.069 21.7688 161.001 27.5088 161.087 33.1981C159.513 32.6282 128.723 6.00365 126.79 4.32138C120.147 -1.46129 110.416 -1.41859 103.766 4.31836L86.6473 18.8745C76.7608 26.81 62.5229 39.3943 52.6225 47.8124L1.42044 91.243C-2.21244 95.0864 2.04104 99.0435 3.99241 101.447C5.46378 103.261 9.82309 109.075 11.6735 109.795C13.9284 110.672 15.8628 109.545 17.1327 108.434C26.5074 100.226 38.2414 90.9497 47.0144 82.9703C54.3399 76.307 64.672 68.291 72.3898 61.4157L115.279 25.1213L115.28 25.1228Z" fill="#FEFEFE"/>
</svg>
