<svg width="233" height="236" viewBox="0 0 233 236" fill="none" xmlns="http://www.w3.org/2000/svg">
<mask id="mask0_689_23" style="mask-type:luminance" maskUnits="userSpaceOnUse" x="0" y="0" width="233" height="236">
<path d="M13.1185 63.1965C13.0085 63.977 10.3583 69.201 9.79856 70.5167C8.72895 73.0304 7.74779 75.4561 6.83731 78.0644C0.687259 95.6785 -1.54758 114.837 1.09167 133.576C6.90118 174.834 35.3297 214.423 74.8941 228.82C80.1189 230.72 86.0819 232.202 92.0615 232.923C99.0408 233.764 103.892 231.033 105.796 225.948C107.875 220.397 106.319 213.436 104.44 208.365C101.848 201.371 98.0203 195.648 97.4976 194.246C98.4194 193.595 100.767 193.242 101.986 192.836C105.83 191.556 110.355 189.226 113.547 186.999C117.171 184.469 123.116 179.395 126.041 176.244C126.984 175.228 127.958 174.39 129.02 173.358L137.231 164.178C148.907 149.752 156.126 138.546 164.639 121.819C169.526 112.218 174.39 99.4754 177.111 88.0737C179.929 74.2535 179.135 61.8854 170.755 50.4546C169.394 48.5984 164.849 43.3275 163.053 42.6714C161.415 44.6175 151.52 62.1972 150.406 62.9682C150.25 63.9823 148.463 66.4253 147.786 67.5603C146.91 69.0287 145.962 70.5688 145.041 72.0897C144.069 73.6949 143.241 75.009 142.283 76.6187C141.602 77.7628 139.953 80.1099 139.593 81.209L141.81 83.242C144.062 85.478 145.305 88.0979 145.823 91.5426C146.606 96.7496 145.015 101.107 143.474 105.304C141.97 109.4 140.17 113.063 138.352 116.761C132.671 128.308 126.419 136.664 118.052 146.213C114.063 150.766 108.151 155.053 101.573 154.63C98.6462 154.442 97.5067 153.572 95.3289 152.856C94.3133 154.274 93.2619 156.141 92.2898 157.663C89.9215 161.37 71.6585 190.562 71.522 191.214C75.0211 193.333 82.147 194.905 86.873 195.011C87.4883 196.599 89.3761 199.556 90.2995 201.282C92.4682 205.339 99.6689 218.886 95.3625 222.001C90.6589 225.404 70.6168 216.137 66.849 214.005C58.697 209.394 51.4845 204.322 44.9882 197.859C38.7252 191.628 33.6085 185.428 28.0805 176.756C11.4699 150.693 6.11768 116.054 16.3024 84.6994C17.7976 80.0951 19.6779 75.1844 21.7457 71.1309C22.7382 69.184 27.5854 59.7722 28.6153 59.166C29.2514 57.5873 31.5966 54.5773 32.6708 53.1505C36.3097 48.3154 42.1808 41.7719 46.7536 37.9054L52.127 33.3673C53.875 31.9976 55.7459 30.6744 57.7483 29.2885C88.8599 7.76518 130.45 5.17281 165.061 23.1879C174.437 28.0692 185.92 36.5338 192.937 44.45C197.776 49.9088 201.644 54.369 205.686 61.0248C210.126 68.3344 215.796 79.6038 217.764 88.2393C223.385 109.82 223.4 128.993 217.001 150.116C212.74 164.179 205.474 176.634 196.468 187.417L192.276 192.121C189.827 194.753 185.938 198.252 183.143 200.583C172.511 209.448 159.291 216.551 145.465 220.541C140.842 221.876 136.285 223.284 131.403 224.248C127.201 225.077 119.504 225.2 116.932 227.389C115.27 228.804 115.162 232.179 116.699 234.128C118.091 235.894 121.051 235.898 123.825 235.848C129.363 235.751 134.233 235.059 139.355 233.846C159.108 229.168 174.817 221.481 187.727 211.237C216.813 188.158 234.025 153.214 232.87 114.37C232.421 99.2664 229.091 84.2005 223.254 70.7601C221.127 65.8618 219.003 62.4833 217.412 58.9562C216.863 58.3436 215.908 56.5173 215.418 55.7308C214.743 54.648 214.195 53.7344 213.47 52.6252C212.106 50.54 210.733 48.6453 209.278 46.7075C207.819 44.7634 206.244 42.6355 204.711 40.9687C203.957 40.1482 203.085 39.1364 202.36 38.2595C201.62 37.3653 200.691 36.5229 199.908 35.6543C197.022 32.45 192.761 28.7272 189.268 25.8733C169.33 9.57671 142.571 -0.807538 113.105 0.0492805C84.7685 0.873217 58.1633 12.4741 40.0144 28.9453C36.9737 31.7047 34.5885 34.3073 32.1877 36.4854C31.3052 37.2867 30.6793 38.2618 29.81 39.1598C28.2733 40.7461 26.5464 42.9307 25.117 44.7853C22.1251 48.6687 19.439 52.4804 16.8818 56.7713C16.4638 57.4728 13.6522 62.7422 13.1193 63.198L13.1185 63.1965Z" fill="white"/>
</mask>
<g mask="url(#mask0_689_23)">
<path d="M687.311 -269.423H-454.429V505.24H687.311V-269.423Z" fill="#3FBFCD"/>
<path d="M379.238 -132.995H-146.314V368.856H379.238V-132.995Z" fill="#FEFEFE" stroke="#FEFEFE" stroke-width="0.458079" stroke-miterlimit="22.9256"/>
</g>
<path fill-rule="evenodd" clip-rule="evenodd" d="M66.1926 189.497C66.8219 188.905 82.7288 162.868 83.9594 160.853L89.8695 151.173C89.1283 150.1 83.1495 146.703 82.1275 146.156C78.817 144.381 75.948 143.612 71.7519 145.005C65.8226 146.974 61.1768 152.833 58.2069 157.14C55.0026 161.788 51.0405 169.184 53.227 176.692C54.23 180.135 56.4672 182.587 58.5357 184.307C59.8914 185.436 64.4522 188.856 66.1919 189.496L66.1926 189.497Z" fill="#FEFEFE"/>
<path fill-rule="evenodd" clip-rule="evenodd" d="M120.146 60.0554C120.414 61.7868 118.359 67.9655 123.495 72.8442C124.718 74.0056 131.628 78.8464 133.575 79.3578L144.183 62.6254L150.882 51.853C151.948 50.1893 157.095 42.2402 157.528 41.1691C156.036 39.6943 148.833 36.0682 146.178 35.4166C133.626 32.3356 124.206 46.7862 121.155 56.6973L120.146 60.0554Z" fill="#FEFEFE"/>
</svg>
