<?xml version="1.0" encoding="UTF-8"?>
<!DOCTYPE svg PUBLIC "-//W3C//DTD SVG 1.1//EN" "http://www.w3.org/Graphics/SVG/1.1/DTD/svg11.dtd">
<!-- Creator: CorelDRAW 2021.5 -->
<svg xmlns="http://www.w3.org/2000/svg" xml:space="preserve" width="103.5mm" height="105.5mm" version="1.1" style="shape-rendering:geometricPrecision; text-rendering:geometricPrecision; image-rendering:optimizeQuality; fill-rule:evenodd; clip-rule:evenodd"
viewBox="0 0 10350 10550"
 xmlns:xlink="http://www.w3.org/1999/xlink"
 xmlns:xodm="http://www.corel.com/coreldraw/odm/2003">
 <defs>
  <style type="text/css">
   <![CDATA[
    .fil2 {fill:none}
    .fil1 {fill:#3FBFCD}
    .fil0 {fill:#FEFEFE}
   ]]>
  </style>
    <clipPath id="id0">
     <path d="M36.19 5494.86c4.41,134.86 28.4,388.5 44.11,508.77 23.34,178.54 58.71,361.2 100.74,532.83 39.78,162.47 85.72,332.44 142.68,489.99 27.9,77.15 55.82,152.42 85.14,228.23 30.51,78.92 129.9,312.6 169.35,381.33 10.78,18.76 18.45,34.24 27.72,53.2l111.56 206.71c9.18,16.36 18.84,32.58 26.91,48.58 36.91,73.03 133.08,225.46 181.77,292.61l96.57 140.52c22.99,31.38 45.52,57.6 66.69,89.51l103.42 133.5c12.23,14.29 25.45,30.71 36.1,44.68 45.34,59.51 96.77,112.95 145.32,172.24 43.92,53.59 176.3,185.18 231.39,242.01 15.96,16.5 23.92,20.95 39.91,35.34l163.76 153.43c15.44,12.06 26.92,23.73 43.36,37.25 28.9,23.81 54.85,48.19 83.7,72.16 29.23,24.29 57.17,45.14 86.65,69.15 29.71,24.18 56.13,44.19 87.56,68.22 101.82,77.88 212.22,158.89 322.07,225.51 18.03,10.96 30.34,19.73 49.33,31.18 34.2,20.62 65.11,43.47 99.44,61.52 35.03,18.43 62.64,38.77 97.63,57.93l104.77 56.08c18.24,9.18 30.63,18.13 47.82,27.28 121.39,64.45 248.6,122.7 375.05,176.9 114.73,49.18 224.97,88.17 342.5,128.64 41.09,14.15 72.57,26.27 116.27,38.93 41.87,12.12 76.66,24.93 119.38,35.73 146.2,36.92 216.43,58.74 378.53,91.89 133.02,27.2 267.88,52.91 403.74,66.13 148.91,14.51 289.85,32.09 442.46,32.09l330.12 0c56.61,0 97.94,-5.48 149.25,-5.28l285.16 -24.18c326.07,-45.34 591.01,-100.16 899.89,-190.12 118.73,-34.59 233.06,-76.73 347.6,-123.43 36.01,-14.68 73.11,-28.44 111.84,-43.44 72.88,-28.19 146.16,-64.26 217.26,-98.87l104.82 -50.62c36.34,-17.7 67.58,-33.13 101.59,-53.91l299.56 -172.43c96.56,-58.24 190.42,-125.16 282.87,-189.48l131.98 -98.93c83.68,-59.11 162.33,-128.27 240.18,-195l122.53 -108.56c77.82,-66.37 372.17,-371.69 441.3,-462.44 67.21,-88.25 144.75,-169.26 206.71,-261.72l101.16 -141.23c43.2,-63.82 83.76,-122.86 124.64,-187.92 20.96,-33.35 38.79,-64.73 59.64,-96.68l86.85 -150.46c11.61,-19.79 17.44,-31.91 28.57,-52.33 93.86,-172.43 178.48,-352.69 253.51,-534.5 160.59,-389.07 277.58,-833.75 334.2,-1250.73l25.99 -207.09c2.09,-28.44 5.12,-51.89 5.72,-75.65 0.81,-32.09 4.65,-43.54 5.33,-70.6 2.07,-82.41 10.59,-149.03 10.59,-233.65l0 -331.37c0,-57.76 -5.37,-99.92 -5.18,-152.27 0.35,-92.27 -29.21,-336.03 -42.45,-434.74 -40.59,-303.04 -140.15,-735.45 -247.49,-1018.7 -36.13,-95.32 -69.11,-192.81 -109.65,-284.7 -8.5,-19.28 -15.76,-33.63 -25.08,-55.9 -16.48,-39.33 -31.68,-76.54 -49.4,-112.57 -34.77,-70.75 -64.76,-140.56 -102.88,-210.14 -19.63,-35.82 -35.16,-66.25 -53.25,-103.21 -38.56,-78.8 -153.87,-268.77 -205.99,-343.95 -11.04,-15.91 -19.32,-32.54 -30.84,-50.03 -22.16,-33.7 -42.14,-64.08 -65.73,-95.91l-199.29 -269.31c-51.62,-67.41 -109.33,-127.83 -161.27,-194.01l-58 -65.76c-74.27,-74.88 -153.89,-174.93 -231.9,-241.46l-119.5 -111.66c-85.92,-85.33 -208.2,-182.41 -299.51,-253.98l-247.36 -182.22c-166.62,-113.32 -337.93,-222.48 -517.69,-313.86l-209.52 -106.75c-145.56,-66.15 -293.92,-125.56 -443.4,-183.23 -37.83,-14.61 -79.97,-26.52 -116.31,-38.87 -39.26,-13.37 -76.84,-27.64 -116.47,-38.72l-121.37 -33.7c-40.11,-11.24 -80.99,-23.36 -125.68,-34.73 -214.57,-54.6 -569.61,-126.67 -807.35,-132.44 -44.01,-1.08 -97.41,-11.49 -143.59,-11.06 -51.82,0.49 -96.68,-5.34 -154.5,-5.34l-8.81 0c-184.97,0.04 -357.73,1.71 -539.95,15.97 -102.82,8.04 -188.91,14.82 -285.63,29.11 -428.34,63.37 -839.54,174.46 -1239.3,338.24l-163.55 72.16c-90.61,36.82 -175.02,84.32 -261.95,129.32 -19.72,10.21 -27.74,17.09 -47.78,27.3 -85.82,43.74 -171.31,91.3 -251.7,145.19 -34.16,22.91 -64.88,40.05 -99.06,61.91l-277.37 195.1c-110.2,84.4 -248.09,189.88 -348.64,285.34l-162.33 154.88c-13.89,14.18 -25.58,27.76 -39.97,40.71 -44.23,39.73 -146.95,143.87 -188.17,193.74l-7.22 8.92c-70.44,85.98 -148.52,163.05 -214.4,253.9 -23.53,32.46 -47.61,59.9 -70.81,90.73 -164.81,218.83 -267.03,389.23 -405.69,623.69l-162.24 317.98c-62.5,126.48 -110.49,257.11 -162.27,388.56 -78.1,198.31 -138.09,402.95 -188.84,611.33 -63.06,258.86 -117.05,552.97 -129.93,828.96 -4.79,102.87 -15.92,198.27 -15.92,304.26l0 342.54 -0.08 -0.07z"/>
    </clipPath>
 </defs>
 <g id="Слой_x0020_1">
  <metadata id="CorelCorpID_0Corel-Layer"/>
  <g id="_2445483567840">
   <path class="fil0" d="M36.19 5494.86c4.41,134.86 28.4,388.5 44.11,508.77 23.34,178.54 58.71,361.2 100.74,532.83 39.78,162.47 85.72,332.44 142.68,489.99 27.9,77.15 55.82,152.42 85.14,228.23 30.51,78.92 129.9,312.6 169.35,381.33 10.78,18.76 18.45,34.24 27.72,53.2l111.56 206.71c9.18,16.36 18.84,32.58 26.91,48.58 36.91,73.03 133.08,225.46 181.77,292.61l96.57 140.52c22.99,31.38 45.52,57.6 66.69,89.51l103.42 133.5c12.23,14.29 25.45,30.71 36.1,44.68 45.34,59.51 96.77,112.95 145.32,172.24 43.92,53.59 176.3,185.18 231.39,242.01 15.96,16.5 23.92,20.95 39.91,35.34l163.76 153.43c15.44,12.06 26.92,23.73 43.36,37.25 28.9,23.81 54.85,48.19 83.7,72.16 29.23,24.29 57.17,45.14 86.65,69.15 29.71,24.18 56.13,44.19 87.56,68.22 101.82,77.88 212.22,158.89 322.07,225.51 18.03,10.96 30.34,19.73 49.33,31.18 34.2,20.62 65.11,43.47 99.44,61.52 35.03,18.43 62.64,38.77 97.63,57.93l104.77 56.08c18.24,9.18 30.63,18.13 47.82,27.28 121.39,64.45 248.6,122.7 375.05,176.9 114.73,49.18 224.97,88.17 342.5,128.64 41.09,14.15 72.57,26.27 116.27,38.93 41.87,12.12 76.66,24.93 119.38,35.73 146.2,36.92 216.43,58.74 378.53,91.89 133.02,27.2 267.88,52.91 403.74,66.13 148.91,14.51 289.85,32.09 442.46,32.09l330.12 0c56.61,0 97.94,-5.48 149.25,-5.28l285.16 -24.18c326.07,-45.34 591.01,-100.16 899.89,-190.12 118.73,-34.59 233.06,-76.73 347.6,-123.43 36.01,-14.68 73.11,-28.44 111.84,-43.44 72.88,-28.19 146.16,-64.26 217.26,-98.87l104.82 -50.62c36.34,-17.7 67.58,-33.13 101.59,-53.91l299.56 -172.43c96.56,-58.24 190.42,-125.16 282.87,-189.48l131.98 -98.93c83.68,-59.11 162.33,-128.27 240.18,-195l122.53 -108.56c77.82,-66.37 372.17,-371.69 441.3,-462.44 67.21,-88.25 144.75,-169.26 206.71,-261.72l101.16 -141.23c43.2,-63.82 83.76,-122.86 124.64,-187.92 20.96,-33.35 38.79,-64.73 59.64,-96.68l86.85 -150.46c11.61,-19.79 17.44,-31.91 28.57,-52.33 93.86,-172.43 178.48,-352.69 253.51,-534.5 160.59,-389.07 277.58,-833.75 334.2,-1250.73l25.99 -207.09c2.09,-28.44 5.12,-51.89 5.72,-75.65 0.81,-32.09 4.65,-43.54 5.33,-70.6 2.07,-82.41 10.59,-149.03 10.59,-233.65l0 -331.37c0,-57.76 -5.37,-99.92 -5.18,-152.27 0.35,-92.27 -29.21,-336.03 -42.45,-434.74 -40.59,-303.04 -140.15,-735.45 -247.49,-1018.7 -36.13,-95.32 -69.11,-192.81 -109.65,-284.7 -8.5,-19.28 -15.76,-33.63 -25.08,-55.9 -16.48,-39.33 -31.68,-76.54 -49.4,-112.57 -34.77,-70.75 -64.76,-140.56 -102.88,-210.14 -19.63,-35.82 -35.16,-66.25 -53.25,-103.21 -38.56,-78.8 -153.87,-268.77 -205.99,-343.95 -11.04,-15.91 -19.32,-32.54 -30.84,-50.03 -22.16,-33.7 -42.14,-64.08 -65.73,-95.91l-199.29 -269.31c-51.62,-67.41 -109.33,-127.83 -161.27,-194.01l-58 -65.76c-74.27,-74.88 -153.89,-174.93 -231.9,-241.46l-119.5 -111.66c-85.92,-85.33 -208.2,-182.41 -299.51,-253.98l-247.36 -182.22c-166.62,-113.32 -337.93,-222.48 -517.69,-313.86l-209.52 -106.75c-145.56,-66.15 -293.92,-125.56 -443.4,-183.23 -37.83,-14.61 -79.97,-26.52 -116.31,-38.87 -39.26,-13.37 -76.84,-27.64 -116.47,-38.72l-121.37 -33.7c-40.11,-11.24 -80.99,-23.36 -125.68,-34.73 -214.57,-54.6 -569.61,-126.67 -807.35,-132.44 -44.01,-1.08 -97.41,-11.49 -143.59,-11.06 -51.82,0.49 -96.68,-5.34 -154.5,-5.34l-8.81 0c-184.97,0.04 -357.73,1.71 -539.95,15.97 -102.82,8.04 -188.91,14.82 -285.63,29.11 -428.34,63.37 -839.54,174.46 -1239.3,338.24l-163.55 72.16c-90.61,36.82 -175.02,84.32 -261.95,129.32 -19.72,10.21 -27.74,17.09 -47.78,27.3 -85.82,43.74 -171.31,91.3 -251.7,145.19 -34.16,22.91 -64.88,40.05 -99.06,61.91l-277.37 195.1c-110.2,84.4 -248.09,189.88 -348.64,285.34l-162.33 154.88c-13.89,14.18 -25.58,27.76 -39.97,40.71 -44.23,39.73 -146.95,143.87 -188.17,193.74l-7.22 8.92c-70.44,85.98 -148.52,163.05 -214.4,253.9 -23.53,32.46 -47.61,59.9 -70.81,90.73 -164.81,218.83 -267.03,389.23 -405.69,623.69l-162.24 317.98c-62.5,126.48 -110.49,257.11 -162.27,388.56 -78.1,198.31 -138.09,402.95 -188.84,611.33 -63.06,258.86 -117.05,552.97 -129.93,828.96 -4.79,102.87 -15.92,198.27 -15.92,304.26l0 342.54 -0.08 -0.07z"/>
   <g>
   </g>
   <g>
   </g>
   <g style="clip-path:url(#id0)">
    <g>
     <rect class="fil1" x="-9855.18" y="-5125.54" width="30064.95" height="20810.98"/>
    </g>
   </g>
   <path class="fil2" d="M36.19 5494.86c4.41,134.86 28.4,388.5 44.11,508.77 23.34,178.54 58.71,361.2 100.74,532.83 39.78,162.47 85.72,332.44 142.68,489.99 27.9,77.15 55.82,152.42 85.14,228.23 30.51,78.92 129.9,312.6 169.35,381.33 10.78,18.76 18.45,34.24 27.72,53.2l111.56 206.71c9.18,16.36 18.84,32.58 26.91,48.58 36.91,73.03 133.08,225.46 181.77,292.61l96.57 140.52c22.99,31.38 45.52,57.6 66.69,89.51l103.42 133.5c12.23,14.29 25.45,30.71 36.1,44.68 45.34,59.51 96.77,112.95 145.32,172.24 43.92,53.59 176.3,185.18 231.39,242.01 15.96,16.5 23.92,20.95 39.91,35.34l163.76 153.43c15.44,12.06 26.92,23.73 43.36,37.25 28.9,23.81 54.85,48.19 83.7,72.16 29.23,24.29 57.17,45.14 86.65,69.15 29.71,24.18 56.13,44.19 87.56,68.22 101.82,77.88 212.22,158.89 322.07,225.51 18.03,10.96 30.34,19.73 49.33,31.18 34.2,20.62 65.11,43.47 99.44,61.52 35.03,18.43 62.64,38.77 97.63,57.93l104.77 56.08c18.24,9.18 30.63,18.13 47.82,27.28 121.39,64.45 248.6,122.7 375.05,176.9 114.73,49.18 224.97,88.17 342.5,128.64 41.09,14.15 72.57,26.27 116.27,38.93 41.87,12.12 76.66,24.93 119.38,35.73 146.2,36.92 216.43,58.74 378.53,91.89 133.02,27.2 267.88,52.91 403.74,66.13 148.91,14.51 289.85,32.09 442.46,32.09l330.12 0c56.61,0 97.94,-5.48 149.25,-5.28l285.16 -24.18c326.07,-45.34 591.01,-100.16 899.89,-190.12 118.73,-34.59 233.06,-76.73 347.6,-123.43 36.01,-14.68 73.11,-28.44 111.84,-43.44 72.88,-28.19 146.16,-64.26 217.26,-98.87l104.82 -50.62c36.34,-17.7 67.58,-33.13 101.59,-53.91l299.56 -172.43c96.56,-58.24 190.42,-125.16 282.87,-189.48l131.98 -98.93c83.68,-59.11 162.33,-128.27 240.18,-195l122.53 -108.56c77.82,-66.37 372.17,-371.69 441.3,-462.44 67.21,-88.25 144.75,-169.26 206.71,-261.72l101.16 -141.23c43.2,-63.82 83.76,-122.86 124.64,-187.92 20.96,-33.35 38.79,-64.73 59.64,-96.68l86.85 -150.46c11.61,-19.79 17.44,-31.91 28.57,-52.33 93.86,-172.43 178.48,-352.69 253.51,-534.5 160.59,-389.07 277.58,-833.75 334.2,-1250.73l25.99 -207.09c2.09,-28.44 5.12,-51.89 5.72,-75.65 0.81,-32.09 4.65,-43.54 5.33,-70.6 2.07,-82.41 10.59,-149.03 10.59,-233.65l0 -331.37c0,-57.76 -5.37,-99.92 -5.18,-152.27 0.35,-92.27 -29.21,-336.03 -42.45,-434.74 -40.59,-303.04 -140.15,-735.45 -247.49,-1018.7 -36.13,-95.32 -69.11,-192.81 -109.65,-284.7 -8.5,-19.28 -15.76,-33.63 -25.08,-55.9 -16.48,-39.33 -31.68,-76.54 -49.4,-112.57 -34.77,-70.75 -64.76,-140.56 -102.88,-210.14 -19.63,-35.82 -35.16,-66.25 -53.25,-103.21 -38.56,-78.8 -153.87,-268.77 -205.99,-343.95 -11.04,-15.91 -19.32,-32.54 -30.84,-50.03 -22.16,-33.7 -42.14,-64.08 -65.73,-95.91l-199.29 -269.31c-51.62,-67.41 -109.33,-127.83 -161.27,-194.01l-58 -65.76c-74.27,-74.88 -153.89,-174.93 -231.9,-241.46l-119.5 -111.66c-85.92,-85.33 -208.2,-182.41 -299.51,-253.98l-247.36 -182.22c-166.62,-113.32 -337.93,-222.48 -517.69,-313.86l-209.52 -106.75c-145.56,-66.15 -293.92,-125.56 -443.4,-183.23 -37.83,-14.61 -79.97,-26.52 -116.31,-38.87 -39.26,-13.37 -76.84,-27.64 -116.47,-38.72l-121.37 -33.7c-40.11,-11.24 -80.99,-23.36 -125.68,-34.73 -214.57,-54.6 -569.61,-126.67 -807.35,-132.44 -44.01,-1.08 -97.41,-11.49 -143.59,-11.06 -51.82,0.49 -96.68,-5.34 -154.5,-5.34l-8.81 0c-184.97,0.04 -357.73,1.71 -539.95,15.97 -102.82,8.04 -188.91,14.82 -285.63,29.11 -428.34,63.37 -839.54,174.46 -1239.3,338.24l-163.55 72.16c-90.61,36.82 -175.02,84.32 -261.95,129.32 -19.72,10.21 -27.74,17.09 -47.78,27.3 -85.82,43.74 -171.31,91.3 -251.7,145.19 -34.16,22.91 -64.88,40.05 -99.06,61.91l-277.37 195.1c-110.2,84.4 -248.09,189.88 -348.64,285.34l-162.33 154.88c-13.89,14.18 -25.58,27.76 -39.97,40.71 -44.23,39.73 -146.95,143.87 -188.17,193.74l-7.22 8.92c-70.44,85.98 -148.52,163.05 -214.4,253.9 -23.53,32.46 -47.61,59.9 -70.81,90.73 -164.81,218.83 -267.03,389.23 -405.69,623.69l-162.24 317.98c-62.5,126.48 -110.49,257.11 -162.27,388.56 -78.1,198.31 -138.09,402.95 -188.84,611.33 -63.06,258.86 -117.05,552.97 -129.93,828.96 -4.79,102.87 -15.92,198.27 -15.92,304.26l0 342.54 -0.08 -0.07z"/>
   <path class="fil2" d="M36.19 5494.86c4.41,134.86 28.4,388.5 44.11,508.77 23.34,178.54 58.71,361.2 100.74,532.83 39.78,162.47 85.72,332.44 142.68,489.99 27.9,77.15 55.82,152.42 85.14,228.23 30.51,78.92 129.9,312.6 169.35,381.33 10.78,18.76 18.45,34.24 27.72,53.2l111.56 206.71c9.18,16.36 18.84,32.58 26.91,48.58 36.91,73.03 133.08,225.46 181.77,292.61l96.57 140.52c22.99,31.38 45.52,57.6 66.69,89.51l103.42 133.5c12.23,14.29 25.45,30.71 36.1,44.68 45.34,59.51 96.77,112.95 145.32,172.24 43.92,53.59 176.3,185.18 231.39,242.01 15.96,16.5 23.92,20.95 39.91,35.34l163.76 153.43c15.44,12.06 26.92,23.73 43.36,37.25 28.9,23.81 54.85,48.19 83.7,72.16 29.23,24.29 57.17,45.14 86.65,69.15 29.71,24.18 56.13,44.19 87.56,68.22 101.82,77.88 212.22,158.89 322.07,225.51 18.03,10.96 30.34,19.73 49.33,31.18 34.2,20.62 65.11,43.47 99.44,61.52 35.03,18.43 62.64,38.77 97.63,57.93l104.77 56.08c18.24,9.18 30.63,18.13 47.82,27.28 121.39,64.45 248.6,122.7 375.05,176.9 114.73,49.18 224.97,88.17 342.5,128.64 41.09,14.15 72.57,26.27 116.27,38.93 41.87,12.12 76.66,24.93 119.38,35.73 146.2,36.92 216.43,58.74 378.53,91.89 133.02,27.2 267.88,52.91 403.74,66.13 148.91,14.51 289.85,32.09 442.46,32.09l330.12 0c56.61,0 97.94,-5.48 149.25,-5.28l285.16 -24.18c326.07,-45.34 591.01,-100.16 899.89,-190.12 118.73,-34.59 233.06,-76.73 347.6,-123.43 36.01,-14.68 73.11,-28.44 111.84,-43.44 72.88,-28.19 146.16,-64.26 217.26,-98.87l104.82 -50.62c36.34,-17.7 67.58,-33.13 101.59,-53.91l299.56 -172.43c96.56,-58.24 190.42,-125.16 282.87,-189.48l131.98 -98.93c83.68,-59.11 162.33,-128.27 240.18,-195l122.53 -108.56c77.82,-66.37 372.17,-371.69 441.3,-462.44 67.21,-88.25 144.75,-169.26 206.71,-261.72l101.16 -141.23c43.2,-63.82 83.76,-122.86 124.64,-187.92 20.96,-33.35 38.79,-64.73 59.64,-96.68l86.85 -150.46c11.61,-19.79 17.44,-31.91 28.57,-52.33 93.86,-172.43 178.48,-352.69 253.51,-534.5 160.59,-389.07 277.58,-833.75 334.2,-1250.73l25.99 -207.09c2.09,-28.44 5.12,-51.89 5.72,-75.65 0.81,-32.09 4.65,-43.54 5.33,-70.6 2.07,-82.41 10.59,-149.03 10.59,-233.65l0 -331.37c0,-57.76 -5.37,-99.92 -5.18,-152.27 0.35,-92.27 -29.21,-336.03 -42.45,-434.74 -40.59,-303.04 -140.15,-735.45 -247.49,-1018.7 -36.13,-95.32 -69.11,-192.81 -109.65,-284.7 -8.5,-19.28 -15.76,-33.63 -25.08,-55.9 -16.48,-39.33 -31.68,-76.54 -49.4,-112.57 -34.77,-70.75 -64.76,-140.56 -102.88,-210.14 -19.63,-35.82 -35.16,-66.25 -53.25,-103.21 -38.56,-78.8 -153.87,-268.77 -205.99,-343.95 -11.04,-15.91 -19.32,-32.54 -30.84,-50.03 -22.16,-33.7 -42.14,-64.08 -65.73,-95.91l-199.29 -269.31c-51.62,-67.41 -109.33,-127.83 -161.27,-194.01l-58 -65.76c-74.27,-74.88 -153.89,-174.93 -231.9,-241.46l-119.5 -111.66c-85.92,-85.33 -208.2,-182.41 -299.51,-253.98l-247.36 -182.22c-166.62,-113.32 -337.93,-222.48 -517.69,-313.86l-209.52 -106.75c-145.56,-66.15 -293.92,-125.56 -443.4,-183.23 -37.83,-14.61 -79.97,-26.52 -116.31,-38.87 -39.26,-13.37 -76.84,-27.64 -116.47,-38.72l-121.37 -33.7c-40.11,-11.24 -80.99,-23.36 -125.68,-34.73 -214.57,-54.6 -569.61,-126.67 -807.35,-132.44 -44.01,-1.08 -97.41,-11.49 -143.59,-11.06 -51.82,0.49 -96.68,-5.34 -154.5,-5.34l-8.81 0c-184.97,0.04 -357.73,1.71 -539.95,15.97 -102.82,8.04 -188.91,14.82 -285.63,29.11 -428.34,63.37 -839.54,174.46 -1239.3,338.24l-163.55 72.16c-90.61,36.82 -175.02,84.32 -261.95,129.32 -19.72,10.21 -27.74,17.09 -47.78,27.3 -85.82,43.74 -171.31,91.3 -251.7,145.19 -34.16,22.91 -64.88,40.05 -99.06,61.91l-277.37 195.1c-110.2,84.4 -248.09,189.88 -348.64,285.34l-162.33 154.88c-13.89,14.18 -25.58,27.76 -39.97,40.71 -44.23,39.73 -146.95,143.87 -188.17,193.74l-7.22 8.92c-70.44,85.98 -148.52,163.05 -214.4,253.9 -23.53,32.46 -47.61,59.9 -70.81,90.73 -164.81,218.83 -267.03,389.23 -405.69,623.69l-162.24 317.98c-62.5,126.48 -110.49,257.11 -162.27,388.56 -78.1,198.31 -138.09,402.95 -188.84,611.33 -63.06,258.86 -117.05,552.97 -129.93,828.96 -4.79,102.87 -15.92,198.27 -15.92,304.26l0 342.54 -0.08 -0.07z"/>
   <path class="fil2" d="M36.19 5494.86c4.41,134.86 28.4,388.5 44.11,508.77 23.34,178.54 58.71,361.2 100.74,532.83 39.78,162.47 85.72,332.44 142.68,489.99 27.9,77.15 55.82,152.42 85.14,228.23 30.51,78.92 129.9,312.6 169.35,381.33 10.78,18.76 18.45,34.24 27.72,53.2l111.56 206.71c9.18,16.36 18.84,32.58 26.91,48.58 36.91,73.03 133.08,225.46 181.77,292.61l96.57 140.52c22.99,31.38 45.52,57.6 66.69,89.51l103.42 133.5c12.23,14.29 25.45,30.71 36.1,44.68 45.34,59.51 96.77,112.95 145.32,172.24 43.92,53.59 176.3,185.18 231.39,242.01 15.96,16.5 23.92,20.95 39.91,35.34l163.76 153.43c15.44,12.06 26.92,23.73 43.36,37.25 28.9,23.81 54.85,48.19 83.7,72.16 29.23,24.29 57.17,45.14 86.65,69.15 29.71,24.18 56.13,44.19 87.56,68.22 101.82,77.88 212.22,158.89 322.07,225.51 18.03,10.96 30.34,19.73 49.33,31.18 34.2,20.62 65.11,43.47 99.44,61.52 35.03,18.43 62.64,38.77 97.63,57.93l104.77 56.08c18.24,9.18 30.63,18.13 47.82,27.28 121.39,64.45 248.6,122.7 375.05,176.9 114.73,49.18 224.97,88.17 342.5,128.64 41.09,14.15 72.57,26.27 116.27,38.93 41.87,12.12 76.66,24.93 119.38,35.73 146.2,36.92 216.43,58.74 378.53,91.89 133.02,27.2 267.88,52.91 403.74,66.13 148.91,14.51 289.85,32.09 442.46,32.09l330.12 0c56.61,0 97.94,-5.48 149.25,-5.28l285.16 -24.18c326.07,-45.34 591.01,-100.16 899.89,-190.12 118.73,-34.59 233.06,-76.73 347.6,-123.43 36.01,-14.68 73.11,-28.44 111.84,-43.44 72.88,-28.19 146.16,-64.26 217.26,-98.87l104.82 -50.62c36.34,-17.7 67.58,-33.13 101.59,-53.91l299.56 -172.43c96.56,-58.24 190.42,-125.16 282.87,-189.48l131.98 -98.93c83.68,-59.11 162.33,-128.27 240.18,-195l122.53 -108.56c77.82,-66.37 372.17,-371.69 441.3,-462.44 67.21,-88.25 144.75,-169.26 206.71,-261.72l101.16 -141.23c43.2,-63.82 83.76,-122.86 124.64,-187.92 20.96,-33.35 38.79,-64.73 59.64,-96.68l86.85 -150.46c11.61,-19.79 17.44,-31.91 28.57,-52.33 93.86,-172.43 178.48,-352.69 253.51,-534.5 160.59,-389.07 277.58,-833.75 334.2,-1250.73l25.99 -207.09c2.09,-28.44 5.12,-51.89 5.72,-75.65 0.81,-32.09 4.65,-43.54 5.33,-70.6 2.07,-82.41 10.59,-149.03 10.59,-233.65l0 -331.37c0,-57.76 -5.37,-99.92 -5.18,-152.27 0.35,-92.27 -29.21,-336.03 -42.45,-434.74 -40.59,-303.04 -140.15,-735.45 -247.49,-1018.7 -36.13,-95.32 -69.11,-192.81 -109.65,-284.7 -8.5,-19.28 -15.76,-33.63 -25.08,-55.9 -16.48,-39.33 -31.68,-76.54 -49.4,-112.57 -34.77,-70.75 -64.76,-140.56 -102.88,-210.14 -19.63,-35.82 -35.16,-66.25 -53.25,-103.21 -38.56,-78.8 -153.87,-268.77 -205.99,-343.95 -11.04,-15.91 -19.32,-32.54 -30.84,-50.03 -22.16,-33.7 -42.14,-64.08 -65.73,-95.91l-199.29 -269.31c-51.62,-67.41 -109.33,-127.83 -161.27,-194.01l-58 -65.76c-74.27,-74.88 -153.89,-174.93 -231.9,-241.46l-119.5 -111.66c-85.92,-85.33 -208.2,-182.41 -299.51,-253.98l-247.36 -182.22c-166.62,-113.32 -337.93,-222.48 -517.69,-313.86l-209.52 -106.75c-145.56,-66.15 -293.92,-125.56 -443.4,-183.23 -37.83,-14.61 -79.97,-26.52 -116.31,-38.87 -39.26,-13.37 -76.84,-27.64 -116.47,-38.72l-121.37 -33.7c-40.11,-11.24 -80.99,-23.36 -125.68,-34.73 -214.57,-54.6 -569.61,-126.67 -807.35,-132.44 -44.01,-1.08 -97.41,-11.49 -143.59,-11.06 -51.82,0.49 -96.68,-5.34 -154.5,-5.34l-8.81 0c-184.97,0.04 -357.73,1.71 -539.95,15.97 -102.82,8.04 -188.91,14.82 -285.63,29.11 -428.34,63.37 -839.54,174.46 -1239.3,338.24l-163.55 72.16c-90.61,36.82 -175.02,84.32 -261.95,129.32 -19.72,10.21 -27.74,17.09 -47.78,27.3 -85.82,43.74 -171.31,91.3 -251.7,145.19 -34.16,22.91 -64.88,40.05 -99.06,61.91l-277.37 195.1c-110.2,84.4 -248.09,189.88 -348.64,285.34l-162.33 154.88c-13.89,14.18 -25.58,27.76 -39.97,40.71 -44.23,39.73 -146.95,143.87 -188.17,193.74l-7.22 8.92c-70.44,85.98 -148.52,163.05 -214.4,253.9 -23.53,32.46 -47.61,59.9 -70.81,90.73 -164.81,218.83 -267.03,389.23 -405.69,623.69l-162.24 317.98c-62.5,126.48 -110.49,257.11 -162.27,388.56 -78.1,198.31 -138.09,402.95 -188.84,611.33 -63.06,258.86 -117.05,552.97 -129.93,828.96 -4.79,102.87 -15.92,198.27 -15.92,304.26l0 342.54 -0.08 -0.07z"/>
   <g id="_2444274163328">
    <path class="fil0" d="M3174 7681.19c480.29,30.47 1005.93,1.51 1494.01,8.04 1.35,-183.23 -11.73,-1410.51 6.6,-1478.71 48.88,-11.89 923.32,-11.89 972.18,0 18.26,67.92 5.24,1293.17 6.61,1478.71 488.08,-6.55 1013.71,22.43 1494,-8.04 90.64,-1.74 173.93,-102.68 189.27,-191.91 14.37,-83.59 4.05,-1492.33 4.54,-1782.83 0.15,-92.4 17.43,-120.22 -37.33,-165.59 -148.5,-123.02 -280.48,-236.85 -427.87,-359.63 -142.94,-119.1 -287.18,-237.36 -428.61,-359.06 -37.73,-32.46 -66.27,-57.4 -104.06,-87.42 -232.68,-184.8 -512.9,-437.5 -751.61,-631.37 -57.44,-46.66 -383.15,-331.84 -430.99,-359.33 -50.14,28.79 -158.28,131.47 -211.83,174.6 -75.04,60.43 -138.43,117.31 -213.65,180.21 -143.32,119.82 -285.79,237.79 -427.83,359.51l-1284.28 1077.96c-57.83,48.07 -43.41,48.03 -42.93,149.66 1.39,300.81 -9.14,1704.89 3.42,1794.42 13.33,95.01 97.43,198.98 190.4,200.76l-0.04 0.02z"/>
    <path class="fil0" d="M5160.7 3404.59c97.93,66.97 868.45,737.93 992.97,839.6 304.78,248.85 699.73,592.96 997.58,850.01l556.53 473.31c46.89,36.64 134.84,136.93 230.84,54.3 30.16,-25.94 78.29,-88.3 107.83,-124.96 227.84,-282.92 272.71,-238.1 -201.86,-620.08l-502.9 -422.74c-9.31,-502.7 12.19,-1068.7 -0.4,-1554.73 -1.96,-75.06 -24.21,-119.83 -80.9,-140.03 -75.04,-26.75 -788.26,-18.49 -834.73,12.02 -87.25,57.3 -53.46,274.08 -53.46,393.87 0,150.69 -1.81,302.56 0.47,453.09 -41.64,-15.08 -856.31,-719.52 -907.43,-764.03 -175.78,-153 -433.24,-151.87 -609.19,-0.08l-452.93 385.13c-261.58,209.96 -638.29,542.92 -900.24,765.65l-1354.72 1149.1c-96.12,101.69 16.42,206.39 68.05,269.97 38.93,48 154.27,201.84 203.23,220.88 59.66,23.2 110.84,-6.6 144.44,-36.01 248.04,-217.17 558.5,-462.6 790.62,-673.72 193.82,-176.3 467.19,-388.39 671.39,-570.3l1134.79 -960.29 0.02 0.04z"/>
    <path class="fil0" d="M3174 7681.19c15.36,35 317.38,18.31 366.09,18.31 194.38,0 1069.26,12.43 1136.92,-6.76l2.84 -1476.55 963.54 -0.53 -1.73 1477.1c62.83,17.24 1162.61,8.14 1419.86,6.99 34.86,-0.15 67.74,3.98 85.88,-18.54 -480.29,30.47 -1005.92,1.51 -1494,8.04 -1.37,-185.54 11.65,-1410.79 -6.61,-1478.71 -48.88,-11.89 -923.32,-11.89 -972.18,0 -18.31,68.2 -5.25,1295.47 -6.6,1478.71 -488.08,-6.55 -1013.72,22.43 -1494.01,-8.04l0 -0.02z"/>
   </g>
  </g>
 </g>
</svg>
