<svg width="561" height="311" viewBox="0 0 561 311" fill="none" xmlns="http://www.w3.org/2000/svg">
<g clip-path="url(#clip0_690_2)">
<path d="M3.66406 212.863H14.9191L37.8881 252.364C39.0363 254.343 39.9744 255.713 40.7015 256.474C41.4291 257.235 42.2519 257.616 43.1707 257.616C44.0895 257.616 44.9316 257.254 45.6973 256.531C46.4631 255.808 47.42 254.457 48.5686 252.478L71.5376 212.863H82.4476V295.176H71.4227V232.385L56.6077 258.187C55.3827 260.318 54.196 262.068 53.0474 263.438C51.8992 264.808 50.7698 265.874 49.6594 266.635C48.5494 267.396 47.4393 267.91 46.3289 268.176C45.2188 268.443 44.0895 268.576 42.9409 268.576C41.7927 268.576 40.6634 268.423 39.5533 268.119C38.4429 267.815 37.3329 267.282 36.2228 266.521C35.1124 265.76 34.0023 264.713 32.8923 263.381C31.7819 262.049 30.6525 260.356 29.5043 258.301L14.6893 232.499V295.176H3.66406V212.863ZM99.6743 212.863H156.637V222.11H110.814V247.569H146.302V256.817H110.814V285.929H157.556V295.176H99.6743V212.863ZM162.38 285.815H169.041C170.878 283.988 172.505 281.972 173.922 279.764C175.338 277.557 176.563 274.988 177.597 272.058C178.63 269.128 179.53 265.76 180.295 261.954C181.061 258.148 181.75 253.734 182.362 248.711L186.382 212.863H233.239V285.815H239.9V311.388H228.645V295.176H173.634V311.388H162.38V285.815ZM221.984 285.815V222.224H196.718L192.928 252.593C192.392 257.007 191.799 260.908 191.148 264.295C190.497 267.682 189.751 270.688 188.909 273.314C188.066 275.939 187.128 278.261 186.095 280.278C185.061 282.295 183.855 284.141 182.477 285.815H221.984ZM244.493 287.527C246.943 286.081 248.838 284.864 250.178 283.874C251.518 282.885 252.8 281.667 254.025 280.221C255.021 279.003 255.94 277.386 256.782 275.369C257.624 273.352 258.236 270.631 258.619 267.206L264.936 212.863H312.941V295.176H301.686V222.224H275.272L269.53 268.005C268.993 272.115 268.362 275.559 267.635 278.337C266.907 281.115 265.701 283.646 264.017 285.929C262.486 288.06 260.629 289.982 258.447 291.694C256.265 293.407 253.374 295.177 249.776 297.004L244.493 287.527ZM344.523 225.763C345.212 223.556 346.016 221.577 346.935 219.827C347.854 218.076 349.021 216.573 350.438 215.317C351.854 214.061 353.538 213.091 355.491 212.406C357.443 211.721 359.798 211.378 362.554 211.378C365.31 211.378 367.664 211.721 369.617 212.406C371.569 213.091 373.253 214.042 374.67 215.26C376.086 216.478 377.273 217.981 378.23 219.77C379.187 221.558 380.01 223.518 380.699 225.649L402.06 293.807L391.265 296.318L382.422 268.69H342.226L333.498 296.318L322.932 293.807L344.523 225.763ZM379.551 259.328L369.559 227.59C368.717 224.926 367.76 223.118 366.688 222.167C365.616 221.216 364.2 220.74 362.439 220.74C360.602 220.74 359.147 221.216 358.075 222.167C357.003 223.118 356.046 224.926 355.204 227.59L345.098 259.328H379.551ZM412.052 212.863H423.307V271.316L465.455 224.394V212.863H476.709V295.176H465.455V238.208L423.307 285.13V295.176H412.052V212.863ZM432.494 187.974C433.336 190.638 434.81 192.902 436.916 194.767C439.021 196.632 441.912 197.564 445.586 197.564C449.185 197.564 452.056 196.632 454.2 194.767C456.344 192.902 457.837 190.638 458.679 187.974L467.407 190.942C466.871 193.226 465.952 195.3 464.651 197.165C463.349 199.029 461.741 200.609 459.827 201.902C457.913 203.196 455.75 204.205 453.339 204.928C450.927 205.651 448.343 206.013 445.586 206.013C439.997 206.013 435.231 204.642 431.288 201.902C427.345 199.163 424.8 195.509 423.651 190.942L432.494 187.974ZM493.936 212.863H505.191V247.569H547.913V212.863H559.168V295.176H547.913V256.931H505.191V295.176H493.936V212.863Z" fill="#00ABBD"/>
<path fill-rule="evenodd" clip-rule="evenodd" d="M295.889 120.942C293.818 121.75 293.319 122.699 291.509 123.941C271.203 137.868 256.508 122.621 256.631 122.242C242.1 106.803 230.001 69.6374 222.397 49.6203C217.154 35.8178 210.264 15.7281 194.964 10.3623C185.151 6.92029 177.235 11.9493 172.831 17.012C173.399 17.3098 172.703 17.263 173.69 17.0124C175.323 16.5974 176.996 15.0104 181.609 14.979C183.905 14.9631 189.311 15.9352 190.978 17.8344C212.286 30.2642 215.799 70.9198 220.275 93.0595C222.681 112.218 236.252 142.44 258.338 144.322C273.497 145.614 283.354 135.596 292.669 125.591C293.857 124.184 295.166 122.818 295.889 120.942Z" fill="#00ABBD"/>
<path fill-rule="evenodd" clip-rule="evenodd" d="M413.381 77.987C397.534 74.5579 385.742 66.0679 373.946 55.5162C366.197 48.5853 357.271 36.5135 347.548 33.1811C339.833 31.9668 332.478 36.3691 327.881 42.5094L328.369 42.6749C328.687 42.2871 337.201 37.7419 344.166 40.5459C350.359 41.535 358.193 53.6329 362.33 59.0894C380.679 83.2905 403.451 106.606 436.28 91.8125C445.781 87.5315 469.918 70.0081 476.91 50.6671C473.941 46.6377 471.214 51.1603 469.455 53.3729C454.721 71.9043 437.073 79.4467 413.381 77.987Z" fill="#00ABBD"/>
<path fill-rule="evenodd" clip-rule="evenodd" d="M322.338 70.3332C326.547 60.6822 334.339 41.7305 344.166 40.546C336.101 37.1467 330.197 42.0313 327.881 42.5094C321.803 47.0161 304.748 71.537 298.265 80.5859C289.485 92.841 272.756 123.788 256.632 122.242C256.509 122.621 271.204 137.868 291.509 123.94C293.319 122.699 293.655 121.75 295.726 120.942C302.446 117.115 320.331 74.9348 322.338 70.3332Z" fill="#66C3D0"/>
<path fill-rule="evenodd" clip-rule="evenodd" d="M167.286 38.6441C171.844 29.5218 179.196 16.7958 190.979 17.8344C189.311 15.9352 183.906 14.9631 181.609 14.979C176.997 15.0103 175.323 16.5973 173.69 17.0123C156.959 21.2601 109.972 162.615 88.6989 168.507C87.7884 168.976 86.6017 169.365 85.7891 169.678C94.7613 172.616 104.704 174.99 113.836 171.37C129.925 164.991 134.918 139.101 139.067 123.281C146.602 94.5573 153.963 65.303 167.286 38.6441Z" fill="#66C3D0"/>
</g>
<defs>
<clipPath id="clip0_690_2">
<rect width="561" height="311" fill="white"/>
</clipPath>
</defs>
</svg>
