<svg width="392" height="164" viewBox="0 0 392 164" fill="none" xmlns="http://www.w3.org/2000/svg">
<path fill-rule="evenodd" clip-rule="evenodd" d="M210.1 111.713C208.028 112.521 207.53 113.47 205.72 114.712C185.414 128.639 170.719 113.392 170.842 113.013C156.311 97.5744 144.212 60.4084 136.608 40.3913C131.365 26.5888 124.475 6.4991 109.175 1.1333C99.3617 -2.30872 91.4463 2.72032 87.042 7.783C87.6101 8.08083 86.9139 8.03396 87.9011 7.78338C89.5338 7.36839 91.2074 5.78136 95.8196 5.74999C98.1164 5.73412 103.521 6.70621 105.189 8.60543C126.497 21.0352 130.01 61.6908 134.486 83.8305C136.892 102.989 150.462 133.211 172.549 135.093C187.708 136.385 197.565 126.367 206.879 116.362C208.068 114.955 209.377 113.589 210.1 111.713Z" fill="#00ABBD"/>
<path fill-rule="evenodd" clip-rule="evenodd" d="M327.592 68.758C311.745 65.3289 299.953 56.8389 288.157 46.2872C280.408 39.3563 271.482 27.2845 261.759 23.9521C254.044 22.7377 246.689 27.1401 242.092 33.2804L242.58 33.4459C242.898 33.0581 251.412 28.5129 258.377 31.3169C264.57 32.306 272.404 44.4039 276.541 49.8604C294.89 74.0615 317.662 97.377 350.491 82.5835C359.992 78.3025 384.129 60.7791 391.121 41.4381C388.152 37.4087 385.425 41.9313 383.666 44.1439C368.932 62.6753 351.284 70.2177 327.592 68.758Z" fill="#00ABBD"/>
<path fill-rule="evenodd" clip-rule="evenodd" d="M236.549 61.1042C240.758 51.4532 248.55 32.5015 258.377 31.317C250.312 27.9177 244.408 32.8023 242.092 33.2804C236.014 37.7871 218.959 62.308 212.476 71.3569C203.696 83.612 186.967 114.559 170.843 113.013C170.72 113.392 185.415 128.639 205.72 114.711C207.53 113.47 207.866 112.521 209.937 111.713C216.656 107.886 234.542 65.7058 236.549 61.1042Z" fill="#66C3D0"/>
<path fill-rule="evenodd" clip-rule="evenodd" d="M81.4964 29.4151C86.0553 20.2928 93.4072 7.56677 105.19 8.60538C103.522 6.70617 98.1165 5.73407 95.8197 5.74995C91.2075 5.78132 89.534 7.36834 87.9012 7.78333C71.1704 12.0311 24.1826 153.386 2.90986 159.278C1.99937 159.747 0.812598 160.136 0 160.449C8.97222 163.387 18.915 165.761 28.0467 162.141C44.1362 155.762 49.1286 129.872 53.2781 114.052C60.8126 85.3283 68.1736 56.074 81.4964 29.4151Z" fill="#66C3D0"/>
</svg>
