<svg width="172" height="107" viewBox="0 0 172 107" fill="none" xmlns="http://www.w3.org/2000/svg">
<path d="M111.787 11.3628H60.5783V94.889H111.787V11.3628Z" fill="#FF5F00"/>
<path d="M65.7447 53.1259C65.7465 45.0906 67.566 37.1598 71.0672 29.9274C74.5683 22.695 79.6602 16.3484 85.9618 11.3628C78.125 5.20114 68.7126 1.36886 58.8007 0.303986C48.8887 -0.760886 38.8771 0.984624 29.9103 5.34098C20.9436 9.69734 13.3834 16.4888 8.09419 24.9389C2.80494 33.389 0 43.1569 0 53.1259C0 63.0949 2.80494 72.8627 8.09419 81.3129C13.3834 89.763 20.9436 96.5544 29.9103 100.911C38.8771 105.267 48.8887 107.013 58.8007 105.948C68.7126 104.883 78.125 101.051 85.9618 94.889C79.6602 89.9034 74.5683 83.5567 71.0672 76.3243C67.566 69.0919 65.7465 61.1611 65.7447 53.1259Z" fill="#EB001B"/>
<path d="M172 53.1259C172.007 63.0876 169.211 72.8503 163.93 81.2973C158.649 89.7443 151.098 96.5346 142.14 100.891C133.181 105.248 123.177 106.996 113.272 105.935C103.367 104.873 93.9609 101.045 86.1292 94.889C92.4322 89.9046 97.5252 83.5583 101.027 76.3256C104.528 69.0929 106.347 61.1615 106.347 53.1259C106.347 45.0902 104.528 37.1588 101.027 29.9261C97.5252 22.6935 92.4322 16.3471 86.1292 11.3628C93.9609 5.20647 103.367 1.37868 113.272 0.317178C123.177 -0.74432 133.181 1.00334 142.14 5.36026C151.098 9.71718 158.649 16.5075 163.93 24.9545C169.211 33.4015 172.007 43.1641 172 53.1259Z" fill="#F79E1B"/>
</svg>
