<svg width="198" height="342" viewBox="0 0 198 342" fill="none" xmlns="http://www.w3.org/2000/svg">
<path d="M99.2011 51.5C108.881 51.5 118.165 55.3455 125.01 62.1906C131.856 69.0357 135.701 78.3196 135.701 88C135.701 97.6804 131.856 106.964 125.01 113.809C118.165 120.654 108.881 124.5 99.2011 124.5C89.5207 124.5 80.2367 120.654 73.3917 113.809C66.5466 106.964 62.7011 97.6804 62.7011 88C62.7011 78.3196 66.5466 69.0357 73.3917 62.1906C80.2367 55.3455 89.5207 51.5 99.2011 51.5ZM99.2011 176C147.801 176 187.201 136.5 187.201 88C187.201 39.5 147.701 0 99.2011 0C50.7011 0 11.2011 39.5 11.2011 88C11.2011 136.5 50.7011 176 99.2011 176ZM134.801 247.9C152.86 243.815 170.101 236.715 185.801 226.9C188.664 225.088 191.142 222.729 193.093 219.96C195.045 217.19 196.432 214.063 197.174 210.757C197.917 207.451 198.002 204.031 197.423 200.693C196.844 197.355 195.613 194.163 193.801 191.3C191.989 188.437 189.631 185.959 186.861 184.008C184.091 182.056 180.964 180.67 177.658 179.927C174.352 179.184 170.932 179.099 167.594 179.678C164.256 180.257 161.064 181.488 158.201 183.3C140.418 194.413 119.871 200.305 98.9011 200.305C77.9316 200.305 57.384 194.413 39.6011 183.3C36.7383 181.488 33.5465 180.257 30.2081 179.678C26.8697 179.099 23.4499 179.184 20.1441 179.927C16.8383 180.67 13.7112 182.056 10.9414 184.008C8.17157 185.959 5.81324 188.437 4.00107 191.3C2.18873 194.163 0.958025 197.355 0.379229 200.693C-0.199566 204.031 -0.115126 207.451 0.627749 210.757C1.37062 214.063 2.75738 217.19 4.70882 219.96C6.66026 222.729 9.13818 225.088 12.0011 226.9C27.9011 236.9 45.0011 243.9 63.0011 247.9L14.0011 297.2C9.16087 302.04 6.44167 308.605 6.44167 315.45C6.44167 322.295 9.16087 328.86 14.0011 333.7C18.8413 338.54 25.406 341.259 32.2511 341.259C39.0961 341.259 45.6609 338.54 50.5011 333.7L98.9011 285.2L147.301 333.6C149.697 335.998 152.542 337.9 155.673 339.198C158.805 340.495 162.161 341.163 165.551 341.163C168.941 341.163 172.297 340.495 175.429 339.198C178.56 337.9 181.405 335.998 183.801 333.6C186.199 331.204 188.101 328.359 189.399 325.228C190.696 322.096 191.364 318.74 191.364 315.35C191.364 311.96 190.696 308.604 189.399 305.472C188.101 302.341 186.199 299.496 183.801 297.1L134.501 247.8" fill="white"/>
</svg>
