<svg width="253" height="78" viewBox="0 0 253 78" fill="none" xmlns="http://www.w3.org/2000/svg">
<path fill-rule="evenodd" clip-rule="evenodd" d="M94.6506 1.35389L62.6013 75.8895L41.0538 75.9154L22.8064 13.4842L21.3279 8.78036L21.4499 8.84709C21.5456 8.89864 21.6411 8.95214 21.7364 9.00408C25.0194 10.7433 39.5938 19.0542 48.6052 32.5179C49.9771 39.3653 51.2907 45.5852 53.1453 52.2943L73.0827 1.35385L94.6506 1.35389Z" fill="#006CB5"/>
<path fill-rule="evenodd" clip-rule="evenodd" d="M181.35 51.5546C181.2 67.0702 167.32 77.0882 145.923 77.0882C136.803 76.9898 128.007 75.1961 123.231 73.102L126.091 56.3847L128.722 57.5883C135.421 60.3762 139.741 61.4946 147.893 61.4946C153.75 61.4946 160.012 59.1984 160.057 54.1848C160.083 50.913 157.427 48.5907 149.503 44.9329C141.789 41.3531 131.561 35.3732 131.691 24.6414C131.789 10.1219 145.977 0 166.09 0C173.968 0 180.276 1.61004 184.32 3.14032L181.56 19.3217L179.714 18.4519C175.984 16.9475 171.154 15.488 164.48 15.5917C156.531 15.5917 152.827 18.9174 152.827 22.0317C152.8 25.5056 157.146 27.8353 164.252 31.2834C176.01 36.603 181.454 43.0688 181.35 51.5546Z" fill="#006CB5"/>
<path fill-rule="evenodd" clip-rule="evenodd" d="M236.537 1.35388H220.819C215.939 1.35388 212.281 2.68203 210.161 7.5637L179.924 75.9878H201.288C201.288 75.9878 204.788 66.7878 205.587 64.766C207.909 64.766 228.691 64.8181 231.655 64.8181C232.245 67.4297 234.109 75.9878 234.109 75.9878H253L236.537 1.35388ZM211.435 49.5067C215.093 40.2156 218.762 30.8583 222.245 21.4951C224.249 30.8379 226.297 40.1703 228.331 49.5067H211.435Z" fill="#006CB5"/>
<path fill-rule="evenodd" clip-rule="evenodd" d="M102.882 1.27582H123.231L110.498 75.9622H90.1544L102.882 1.27582Z" fill="#006CB5"/>
<path fill-rule="evenodd" clip-rule="evenodd" d="M2.65078e-05 0.617615L34.4321 0.641743C38.6776 0.791931 42.0998 2.14576 43.3036 6.69378L48.6051 32.518C39.5937 19.0543 25.0192 10.7434 21.7363 9.00419C21.641 8.95224 21.5468 8.89971 21.4511 8.84816C20.9023 8.5472 20.3461 8.24994 19.786 7.95949C13.7719 4.83862 7.12049 2.33604 2.65078e-05 0.617615Z" fill="#FAA841"/>
</svg>
