<?xml version="1.0" encoding="UTF-8"?>
<!DOCTYPE svg PUBLIC "-//W3C//DTD SVG 1.1//EN" "http://www.w3.org/Graphics/SVG/1.1/DTD/svg11.dtd">
<!-- Creator: CorelDRAW 2021.5 -->
<svg xmlns="http://www.w3.org/2000/svg" xml:space="preserve" width="148.5mm" height="100mm" version="1.1" style="shape-rendering:geometricPrecision; text-rendering:geometricPrecision; image-rendering:optimizeQuality; fill-rule:evenodd; clip-rule:evenodd"
viewBox="0 0 14850 10000"
 xmlns:xlink="http://www.w3.org/1999/xlink"
 xmlns:xodm="http://www.corel.com/coreldraw/odm/2003">
 <defs>
  <style type="text/css">
   <![CDATA[
    .fil1 {fill:#00ABBD}
    .fil3 {fill:#66C3D0}
    .fil0 {fill:#00ABBD;fill-rule:nonzero}
    .fil2 {fill:#FEFEFE;fill-rule:nonzero}
   ]]>
  </style>
 </defs>
 <g id="Слой_x0020_1">
  <metadata id="CorelCorpID_0Corel-Layer"/>
  <g id="_2445919510080">
   <path class="fil0" d="M96.95 5631.99l297.79 0 607.72 1045.15c30.38,52.35 55.2,88.6 74.44,108.74 19.25,20.14 41.02,30.21 65.33,30.21 24.31,0 46.59,-9.57 66.85,-28.7 20.26,-19.13 45.58,-54.87 75.97,-107.23l607.72 -1048.17 288.66 0 0 2177.89 -291.7 0 0 -1661.36 -391.98 682.67c-32.41,56.39 -63.81,102.7 -94.2,138.95 -30.38,36.25 -60.26,64.44 -89.64,84.58 -29.37,20.14 -58.74,33.73 -88.12,40.78 -29.37,7.05 -59.25,10.57 -89.64,10.57 -30.38,0 -60.26,-4.03 -89.63,-12.08 -29.38,-8.06 -58.75,-22.15 -88.12,-42.29 -29.38,-20.14 -58.75,-47.83 -88.12,-83.07 -29.38,-35.24 -59.26,-80.05 -89.64,-134.42l-391.98 -682.67 0 1658.34 -291.71 0 0 -2177.89zm2540.27 0l1507.15 0 0 244.67 -1212.4 0 0 673.61 938.93 0 0 244.67 -938.93 0 0 770.27 1236.71 0 0 244.67 -1531.46 0 0 -2177.89zm1659.08 1930.2l176.24 0c48.62,-48.33 91.66,-101.69 129.14,-160.09 37.48,-58.4 69.89,-126.37 97.24,-203.9 27.34,-77.53 51.15,-166.64 71.39,-267.33 20.26,-100.69 38.49,-217.48 54.7,-350.39l106.35 -948.49 1239.75 0 0 1930.2 176.24 0 0 676.63 -297.79 0 0 -428.94 -1455.48 0 0 428.94 -297.78 0 0 -676.63zm1577.03 0l0 -1682.51 -668.5 0 -100.27 803.5c-14.18,116.8 -29.88,220 -47.1,309.62 -17.22,89.61 -36.97,169.15 -59.25,238.63 -22.28,69.47 -47.1,130.89 -74.45,184.26 -27.35,53.36 -59.25,102.2 -95.71,146.5l1045.28 0zm595.56 45.31c64.82,-38.26 114.96,-70.48 150.41,-96.66 35.45,-26.18 69.38,-58.4 101.79,-96.66 26.34,-32.22 50.65,-75.01 72.93,-128.38 22.29,-53.36 38.49,-125.36 48.62,-215.98l167.12 -1437.83 1270.14 0 0 2177.89 -297.78 0 0 -1930.2 -698.88 0 -151.93 1211.29c-14.19,108.74 -30.9,199.87 -50.14,273.37 -19.24,73.5 -51.15,140.46 -95.72,200.87 -40.51,56.39 -89.64,107.24 -147.37,152.54 -57.73,45.31 -134.21,92.13 -229.41,140.47l-139.78 -250.72zm2646.62 -1634.18c18.23,-58.4 39.51,-110.75 63.81,-157.07 24.31,-46.32 55.2,-86.09 92.68,-119.32 37.48,-33.23 82.04,-58.9 133.7,-77.03 51.66,-18.12 113.95,-27.18 186.87,-27.18 72.93,0 135.22,9.06 186.88,27.18 51.65,18.13 96.22,43.3 133.69,75.52 37.48,32.22 68.88,71.99 94.2,119.32 25.33,47.32 47.1,99.18 65.33,155.56l565.18 1803.34 -285.63 66.45 -233.97 -731 -1063.51 0 -230.93 731 -279.55 -66.45 571.25 -1800.32zm926.78 888.08l-264.36 -839.75c-22.29,-70.48 -47.61,-118.31 -75.97,-143.48 -28.36,-25.17 -65.83,-37.76 -112.42,-37.76 -48.62,0 -87.11,12.59 -115.47,37.76 -28.36,25.17 -53.68,73 -75.97,143.48l-267.39 839.75 911.58 0zm859.92 -1229.41l297.78 0 0 1546.58 1115.17 -1241.49 0 -305.09 297.78 0 0 2177.89 -297.78 0 0 -1507.3 -1115.17 1241.49 0 265.81 -297.78 0 0 -2177.89zm540.87 -658.5c22.28,70.48 61.28,130.39 116.99,179.72 55.71,49.34 132.18,74.01 229.41,74.01 95.21,0 171.18,-24.67 227.9,-74.01 56.72,-49.33 96.22,-109.24 118.5,-179.72l230.94 78.53c-14.18,60.41 -38.49,115.29 -72.93,164.63 -34.44,49.34 -76.98,91.12 -127.62,125.35 -50.64,34.24 -107.87,60.92 -171.68,80.05 -63.81,19.13 -132.18,28.7 -205.11,28.7 -147.88,0 -273.98,-36.25 -378.3,-108.75 -104.33,-72.49 -171.68,-169.15 -202.07,-289.98l233.97 -78.53zm1625.65 658.5l297.79 0 0 918.28 1130.35 0 0 -918.28 297.78 0 0 2177.89 -297.78 0 0 -1011.92 -1130.35 0 0 1011.92 -297.79 0 0 -2177.89z"/>
   <path class="fil1" d="M2339.18 8578l10213.27 0c297.61,0 541.11,242.06 541.11,537.91l0 0c0,295.86 -243.5,537.91 -541.11,537.91l-10213.27 0c-297.61,0 -541.11,-242.05 -541.11,-537.91l0 0c0,-295.85 243.5,-537.91 541.11,-537.91z"/>
   <path class="fil2" d="M2904.44 8855.55l0 464.13 81.23 0 0 -234.85 -1.86 -125.31 4.66 0 162.48 267.33 56.02 0 164.35 -267.33 4.67 0 -2.8 150.37 0 209.79 85.9 0 0 -464.13 -109.25 0 -168.08 282.19 -170.87 -282.19 -106.45 0zm1117.71 253.42c6.54,-24.14 8.41,-44.56 8.41,-70.55 0,-111.39 -70.03,-192.15 -218.5,-192.15 -145.67,0 -254.92,97.47 -254.92,242.27 0,146.67 93.37,240.42 261.45,240.42 83.11,0 130.73,-8.35 192.36,-37.13l-25.21 -70.54c-48.56,26.92 -96.18,36.2 -161.54,36.2 -90.58,0 -170.89,-46.42 -177.42,-148.52l375.37 0zm-377.24 -66.84c7.47,-84.47 82.17,-126.24 157.81,-126.24 99.91,0 142.87,35.27 143.8,126.24l-301.61 0zm559.33 -186.58l0 122.53c0,129.03 -28.95,226.5 -123.26,276.62l0 178.23 68.17 0 15.87 -113.25 370.71 0 10.27 113.25 65.36 0 10.27 -181.94 -58.83 0 0 -395.44 -358.56 0zm80.3 69.62l191.42 0 0 325.82 -279.19 0c62.56,-58.48 87.77,-138.31 87.77,-241.35l0 -84.47zm424.87 -69.62l0 464.13 84.03 0 275.46 -349.02 -1.87 166.15 0 182.87 84.97 0 0 -464.13 -82.17 0 -278.26 354.6 2.8 -118.82 0 -235.78 -84.96 0zm563.98 0l0 464.13 396.85 0 10.27 113.25 65.37 0 6.53 -181.94 -59.76 0 0 -395.44 -86.84 0 0 395.44 -245.58 0 0 -395.44 -86.84 0zm566.8 0l0 464.13 84.04 0 275.46 -349.02 -1.87 166.15 0 182.87 84.97 0 0 -464.13 -82.17 0 -278.26 354.6 2.8 -118.82 0 -235.78 -84.97 0zm563.99 0l0 464.13 85.91 0 0 -207 259.59 0 0 207 85.9 0 0 -464.13 -85.9 0 0 188.44 -259.59 0 0 -188.44 -85.91 0zm968.32 25.99c-47.63,-25.06 -97.11,-35.27 -170.88,-35.27 -148.47,0 -267.99,98.4 -267.99,244.13 0,135.53 98.98,238.56 254.91,238.56 72.84,0 130.73,-10.21 189.56,-41.77l-26.15 -67.76c-47.62,25.99 -100.84,38.99 -158.74,38.99 -93.37,0 -171.81,-67.77 -171.81,-169.88 0,-112.31 70.04,-173.58 185.82,-173.58 47.62,0 87.78,9.28 128.86,30.63l36.42 -64.05zm96.18 -25.99l0 464.13 86.83 0 0 -222.78 111.12 0 140.07 222.78 100.84 0 -169.01 -257.13 58.83 -99.32c15.87,-25.99 29.88,-39.91 59.76,-39.91 11.21,0 19.61,0.92 32.68,3.71l14.94 -68.69c-14,-7.43 -31.74,-10.21 -51.35,-10.21 -52.29,0 -89.64,18.56 -116.72,64.98l-65.37 114.17 -115.79 0 0 -171.73 -86.83 0zm509.83 0l0 464.13 84.04 0 275.46 -349.02 -1.87 166.15 0 182.87 84.98 0 0 -464.13 -82.17 0 -278.27 354.6 2.81 -118.82 0 -235.78 -84.98 0zm564 0l0 464.13 84.04 0 275.46 -349.02 -1.87 166.15 0 182.87 84.97 0 0 -464.13 -82.17 0 -278.26 354.6 2.8 -118.82 0 -235.78 -84.97 0zm92.44 -144.81c15.87,67.77 70.03,101.18 128.86,101.18 58.83,0 112.98,-33.41 128.86,-101.18l-65.36 -12.06c-6.54,28.77 -26.15,47.34 -63.5,47.34 -37.35,0 -56.96,-18.57 -63.5,-47.34l-65.36 12.06zm738.61 144.81l0 464.13 396.85 0 10.27 113.25 65.37 0 6.53 -181.94 -59.76 0 0 -395.44 -86.84 0 0 395.44 -245.58 0 0 -395.44 -86.84 0zm999.13 253.42c6.53,-24.14 8.4,-44.56 8.4,-70.55 0,-111.39 -70.03,-192.15 -218.5,-192.15 -145.67,0 -254.92,97.47 -254.92,242.27 0,146.67 93.38,240.42 261.46,240.42 83.1,0 130.73,-8.35 192.35,-37.13l-25.21 -70.54c-48.55,26.92 -96.18,36.2 -161.54,36.2 -90.57,0 -170.88,-46.42 -177.42,-148.52l375.38 0zm-377.24 -66.84c7.47,-84.47 82.17,-126.24 157.8,-126.24 99.92,0 142.87,35.27 143.8,126.24l-301.6 0zm483.69 -186.58l0 464.13 85.9 0 0 -207 259.59 0 0 207 85.91 0 0 -464.13 -85.91 0 0 188.44 -259.59 0 0 -188.44 -85.9 0zm690.99 67.77l0 396.36 86.84 0 0 -396.36 166.21 0 0 -67.77 -419.26 0 0 67.77 166.21 0zm346.42 609.86l86.84 0 0 -247.84c42.02,32.48 81.24,43.62 144.74,43.62 160.61,0 239.04,-100.25 239.04,-240.42 0,-151.3 -91.51,-242.27 -258.65,-242.27 -82.17,0 -140.07,9.28 -211.97,26.92l0 659.99zm86.84 -601.51c40.15,-13 68.17,-17.64 125.13,-17.64 107.38,0 171.81,59.41 171.81,174.51 0,105.83 -57.89,168.02 -152.2,168.02 -56.03,0 -99.92,-13 -144.74,-51.05l0 -273.84z"/>
   <path class="fil1" d="M7828.74 3199.93c-54.81,21.38 -68,46.48 -115.9,79.33 -537.25,368.5 -926.05,-34.92 -922.8,-44.94 -384.48,-408.48 -704.58,-1391.83 -905.78,-1921.45 -138.71,-365.19 -321.01,-896.73 -725.82,-1038.7 -259.65,-91.07 -469.08,41.99 -585.61,175.94 15.03,7.88 -3.39,6.64 22.73,0.01 43.2,-10.98 87.48,-52.97 209.51,-53.8 60.77,-0.42 203.78,25.3 247.91,75.55 563.77,328.87 656.71,1404.55 775.15,1990.33 63.64,506.9 422.7,1306.52 1007.08,1356.33 401.07,34.18 661.87,-230.89 908.32,-495.59 31.45,-37.24 66.09,-73.38 85.21,-123.01z"/>
   <path class="fil1" d="M10937.38 2063.41c-419.28,-90.73 -731.29,-315.36 -1043.39,-594.54 -205.02,-183.38 -441.18,-502.78 -698.45,-590.95 -204.12,-32.13 -398.71,84.35 -520.35,246.81l12.91 4.38c8.43,-10.26 233.68,-130.52 417.96,-56.33 163.87,26.17 371.14,346.26 480.61,490.63 485.46,640.32 1087.99,1257.21 1956.59,865.8 251.38,-113.27 890,-576.91 1075,-1088.64 -78.56,-106.61 -150.72,13.05 -197.26,71.59 -389.84,490.31 -856.76,689.87 -1483.62,651.25z"/>
   <path class="fil3" d="M8528.52 1860.9c111.36,-255.35 317.52,-756.78 577.54,-788.12 -213.38,-89.94 -369.6,39.3 -430.87,51.95 -160.82,119.24 -612.06,768.02 -783.59,1007.44 -232.31,324.25 -674.93,1143.05 -1101.56,1102.15 -3.25,10.02 385.55,413.44 922.8,44.94 47.9,-32.85 56.77,-57.95 111.58,-79.33 177.78,-101.26 651,-1217.28 704.1,-1339.03z"/>
   <path class="fil3" d="M4426.1 1022.46c120.62,-241.36 315.14,-578.07 626.88,-550.59 -44.13,-50.25 -187.14,-75.97 -247.91,-75.55 -122.03,0.83 -166.31,42.82 -209.51,53.8 -442.67,112.39 -1685.89,3852.41 -2248.73,4008.29 -24.09,12.41 -55.49,22.71 -76.99,30.99 237.39,77.74 500.46,140.55 742.07,44.76 425.7,-168.76 557.79,-853.77 667.58,-1272.35 199.35,-759.98 394.11,-1534 746.61,-2239.35z"/>
  </g>
 </g>
</svg>
