<svg width="640" height="313" viewBox="0 0 640 313" fill="none" xmlns="http://www.w3.org/2000/svg">
<rect x="104" width="12" height="313" fill="#F2F2F2"/>
<rect x="313" y="135" width="12" height="98" fill="#F2F2F2"/>
<rect x="232" width="12" height="123" fill="#F2F2F2"/>
<rect x="475" width="12" height="123" fill="#F2F2F2"/>
<rect y="186" width="12" height="313" transform="rotate(-90 0 186)" fill="#F2F2F2"/>
<rect x="232" y="135" width="12" height="255" transform="rotate(-90 232 135)" fill="#F2F2F2"/>
<rect x="313" y="245" width="12" height="327" transform="rotate(-90 313 245)" fill="#F2F2F2"/>
<rect x="126" y="196" width="54" height="54" rx="5" fill="#F2F2F2"/>
<rect x="65" y="196" width="29" height="100" rx="5" fill="#F2F2F2"/>
<rect x="26" y="195" width="29" height="100" rx="5" fill="#F2F2F2"/>
<rect x="147" y="36" width="75" height="35" rx="5" fill="#F2F2F2"/>
<rect x="335" y="145" width="54" height="78" rx="5" fill="#F2F2F2"/>
<rect x="20" y="8" width="74" height="115" rx="5" fill="#F2F2F2"/>
<rect x="497" y="10" width="54" height="125" rx="5" fill="#F2F2F2"/>
<rect x="561" y="10" width="54" height="125" rx="5" fill="#F2F2F2"/>
<rect x="190" y="81" width="32" height="83" rx="5" fill="#F2F2F2"/>
<rect x="148" y="81" width="32" height="83" rx="5" fill="#F2F2F2"/>
<rect x="190" y="196" width="113" height="54" rx="5" fill="#F2F2F2"/>
<rect x="126" y="259" width="187" height="17" rx="5" fill="#F2F2F2"/>
<rect x="126" y="286" width="187" height="17" rx="5" fill="#F2F2F2"/>
<rect x="232" y="145" width="71" height="19" rx="5" fill="#F2F2F2"/>
<rect x="399" y="169" width="165" height="54" rx="5" fill="#F2F2F2"/>
<rect x="335" y="255" width="280" height="48" rx="5" fill="#F2F2F2"/>
<rect x="254" y="31" width="188" height="82" rx="5" fill="#F2F2F2"/>
</svg>
