<?xml version="1.0" encoding="UTF-8"?>
<!DOCTYPE svg PUBLIC "-//W3C//DTD SVG 1.1//EN" "http://www.w3.org/Graphics/SVG/1.1/DTD/svg11.dtd">
<!-- Creator: CorelDRAW 2021.5 -->
<svg xmlns="http://www.w3.org/2000/svg" xml:space="preserve" width="103.5mm" height="103.5mm" version="1.1" style="shape-rendering:geometricPrecision; text-rendering:geometricPrecision; image-rendering:optimizeQuality; fill-rule:evenodd; clip-rule:evenodd"
viewBox="0 0 10350 10350"
 xmlns:xlink="http://www.w3.org/1999/xlink"
 xmlns:xodm="http://www.corel.com/coreldraw/odm/2003">
 <defs>
  <style type="text/css">
   <![CDATA[
    .str0 {stroke:#FEFEFE;stroke-width:12.12;stroke-miterlimit:22.9256}
    .fil1 {fill:none}
    .fil0 {fill:#3FBFCD}
    .fil2 {fill:#FEFEFE}
   ]]>
  </style>
   <clipPath id="id0">
    <path d="M15.26 5396.55c4.43,132.82 28.54,382.63 44.32,501.09 23.45,175.84 58.99,355.73 101.22,524.76 39.97,160.02 86.13,327.42 143.36,482.58 28.03,75.99 56.08,150.12 85.55,224.79 30.66,77.72 130.52,307.86 170.16,375.56 10.83,18.48 18.54,33.72 27.85,52.39l112.09 203.58c9.22,16.12 18.93,32.09 27.05,47.86 37.07,71.92 133.71,222.04 182.63,288.18l97.03 138.39c23.1,30.91 45.73,56.73 67.01,88.16l103.92 131.48c12.28,14.07 25.56,30.24 36.26,44.01 45.56,58.61 97.24,111.23 146.02,169.63 44.13,52.78 177.14,182.38 232.49,238.35 16.04,16.25 24.03,20.63 40.11,34.8l164.54 151.11c15.51,11.88 27.04,23.38 43.56,36.69 29.04,23.46 55.12,47.47 84.1,71.07 29.37,23.92 57.44,44.46 87.07,68.1 29.85,23.82 56.39,43.53 87.97,67.19 102.31,76.7 213.23,156.49 323.62,222.1 18.11,10.8 30.47,19.44 49.56,30.72 34.36,20.3 65.42,42.8 99.91,60.58 35.2,18.15 62.94,38.19 98.1,57.06l105.27 55.23c18.33,9.04 30.77,17.86 48.05,26.86 121.97,63.48 249.78,120.85 376.84,174.23 115.27,48.44 226.04,86.84 344.13,126.69 41.29,13.94 72.92,25.88 116.83,38.34 42.07,11.94 77.03,24.56 119.95,35.2 146.9,36.36 217.46,57.85 380.34,90.5 133.65,26.79 269.15,52.1 405.67,65.13 149.61,14.29 291.23,31.6 444.57,31.6l331.7 0c56.88,0 98.41,-5.39 149.97,-5.2l286.51 -23.82c327.63,-44.65 593.84,-98.63 904.19,-187.23 119.29,-34.07 234.18,-75.58 349.26,-121.57 36.18,-14.46 73.46,-28.01 112.38,-42.78 73.22,-27.76 146.86,-63.29 218.3,-97.38l105.31 -49.85c36.52,-17.43 67.91,-32.63 102.07,-53.09l301 -169.83c97.02,-57.36 191.33,-123.27 284.22,-186.61l132.61 -97.44c84.08,-58.21 163.11,-126.33 241.32,-192.05l123.12 -106.92c78.19,-65.37 373.95,-366.07 443.4,-455.45 67.54,-86.91 145.45,-166.69 207.7,-257.76l101.65 -139.09c43.4,-62.86 84.15,-121 125.23,-185.08 21.06,-32.85 38.98,-63.76 59.93,-95.22l87.26 -148.18c11.66,-19.49 17.53,-31.43 28.71,-51.54 94.31,-169.83 179.33,-347.36 254.71,-526.42 161.36,-383.19 278.91,-821.14 335.81,-1231.82l26.11 -203.95c2.09,-28.01 5.14,-51.11 5.74,-74.51 0.82,-31.6 4.68,-42.88 5.36,-69.53 2.08,-81.17 10.64,-146.78 10.64,-230.12l0 -326.37c0,-56.88 -5.4,-98.4 -5.2,-149.97 0.35,-90.87 -29.35,-330.94 -42.65,-428.16 -40.79,-298.46 -140.82,-724.33 -248.68,-1003.3 -36.3,-93.88 -69.44,-189.89 -110.17,-280.4 -8.54,-18.98 -15.84,-33.11 -25.2,-55.05 -16.56,-38.73 -31.83,-75.38 -49.63,-110.87 -34.95,-69.67 -65.08,-138.43 -103.38,-206.96 -19.72,-35.27 -35.33,-65.24 -53.5,-101.64 -38.75,-77.61 -154.6,-264.72 -206.98,-338.76 -11.08,-15.66 -19.41,-32.05 -30.98,-49.27 -22.27,-33.19 -42.34,-63.11 -66.04,-94.46l-200.25 -265.24c-51.87,-66.39 -109.85,-125.89 -162.04,-191.08l-58.27 -64.76c-74.63,-73.75 -154.63,-172.29 -233.02,-237.8l-120.06 -109.98c-86.33,-84.04 -209.2,-179.64 -300.94,-250.13l-248.54 -179.47c-167.42,-111.61 -339.55,-219.11 -520.17,-309.11l-210.51 -105.14c-146.26,-65.15 -295.33,-123.66 -445.53,-180.46 -38.01,-14.39 -80.34,-26.11 -116.86,-38.29 -39.45,-13.16 -77.21,-27.21 -117.02,-38.12l-121.95 -33.2c-40.3,-11.06 -81.38,-23 -126.28,-34.2 -215.6,-53.78 -572.33,-124.75 -811.21,-130.44 -44.22,-1.07 -97.87,-11.32 -144.27,-10.89 -52.07,0.49 -97.14,-5.26 -155.25,-5.26l-8.85 0c-185.86,0.04 -359.45,1.69 -542.53,15.72 -103.31,7.92 -189.82,14.6 -287,28.68 -430.38,62.41 -843.54,171.82 -1245.21,333.12l-164.33 71.07c-91.05,36.26 -175.86,83.05 -263.2,127.37 -19.82,10.05 -27.88,16.83 -48.01,26.89 -86.23,43.07 -172.13,89.92 -252.91,142.99 -34.32,22.56 -65.19,39.45 -99.53,60.98l-278.69 192.14c-110.73,83.13 -249.28,187.01 -350.3,281.02l-163.11 152.55c-13.96,13.96 -25.7,27.33 -40.16,40.09 -44.44,39.13 -147.66,141.69 -189.06,190.81l-7.26 8.79c-70.78,84.68 -149.23,160.58 -215.43,250.06 -23.64,31.97 -47.83,58.99 -71.15,89.35 -165.59,215.52 -268.3,383.35 -407.63,614.26l-163.01 313.17c-62.8,124.57 -111.02,253.22 -163.04,382.68 -78.47,195.32 -138.75,396.86 -189.75,602.09 -63.36,254.95 -117.6,544.61 -130.55,816.43 -4.81,101.31 -15.99,195.27 -15.99,299.65l0 337.38 -0.08 -0.08z"/>
   </clipPath>
   <clipPath id="id1">
    <path d="M2571.97 3668.54c-2.91,20.65 -73.03,158.87 -87.84,193.68 -28.3,66.51 -54.26,130.69 -78.35,199.7 -162.72,466.04 -221.85,972.93 -152.02,1468.75 153.71,1091.62 905.88,2139.08 1952.69,2519.98 138.24,50.28 296.01,89.49 454.22,108.57 184.66,22.25 313.02,-50 363.39,-184.55 55,-146.86 13.84,-331.03 -35.87,-465.21 -68.59,-185.05 -169.86,-336.48 -183.69,-373.58 24.39,-17.22 86.49,-26.54 118.75,-37.29 101.71,-33.88 221.44,-95.53 305.89,-154.45 95.88,-66.92 253.18,-201.18 330.56,-284.56 24.95,-26.86 50.73,-49.05 78.84,-76.35l217.25 -242.89c308.91,-381.69 499.91,-678.17 725.16,-1120.74 129.29,-254.02 258,-591.18 330,-892.85 74.56,-365.66 53.54,-692.9 -168.17,-995.34 -36.01,-49.11 -156.28,-188.57 -203.78,-205.93 -43.35,51.49 -305.15,516.62 -334.62,537.02 -4.13,26.83 -51.42,91.47 -69.34,121.5 -23.16,38.85 -48.24,79.6 -72.62,119.84 -25.73,42.47 -47.62,77.24 -72.98,119.83 -18.01,30.27 -61.63,92.37 -71.16,121.45l58.64 53.79c59.6,59.16 92.48,128.48 106.19,219.62 20.71,137.77 -21.37,253.07 -62.14,364.11 -39.8,108.38 -87.42,205.29 -135.54,303.13 -150.31,305.52 -315.73,526.61 -537.1,779.25 -105.54,120.45 -261.95,233.88 -436.01,222.7 -77.43,-4.97 -107.58,-27.99 -165.2,-46.94 -26.87,37.51 -54.69,86.93 -80.41,127.19 -62.66,98.08 -545.87,870.44 -549.48,887.69 92.58,56.07 281.12,97.67 406.16,100.47 16.28,42.02 66.23,120.26 90.66,165.92 57.38,107.35 247.9,465.77 133.96,548.19 -124.45,90.04 -654.73,-155.14 -754.42,-211.56 -215.69,-122.01 -406.52,-256.19 -578.4,-427.19 -165.71,-164.86 -301.09,-328.9 -447.35,-558.36 -439.49,-689.58 -581.1,-1606.08 -311.63,-2435.66 39.56,-121.82 89.31,-251.75 144.02,-359 26.26,-51.51 154.51,-300.53 181.76,-316.57 16.83,-41.77 78.88,-121.41 107.3,-159.16 96.28,-127.93 251.62,-301.06 372.61,-403.36l142.17 -120.07c46.25,-36.24 95.75,-71.25 148.73,-107.92 823.16,-569.47 1923.57,-638.06 2839.31,-161.41 248.08,129.15 551.89,353.11 737.55,562.56 128.03,144.43 230.38,262.44 337.32,438.54 117.47,193.4 267.49,491.57 319.56,720.05 148.72,570.99 149.12,1078.27 -20.19,1637.15 -112.73,372.08 -304.98,701.63 -543.27,986.94l-110.89 124.46c-64.8,69.63 -167.7,162.21 -241.65,223.87 -281.31,234.56 -631.09,422.5 -996.9,528.06 -122.32,35.32 -242.9,72.59 -372.05,98.08 -111.2,21.93 -314.84,25.18 -382.9,83.12 -43.97,37.43 -46.82,126.73 -6.15,178.29 36.84,46.73 115.15,46.84 188.55,45.52 146.51,-2.58 275.37,-20.89 410.9,-52.97 522.61,-123.78 938.26,-327.17 1279.84,-598.21 769.57,-610.63 1224.95,-1535.2 1194.41,-2562.94 -11.88,-399.61 -99.99,-798.23 -254.44,-1153.84 -56.28,-129.6 -112.46,-218.99 -154.56,-312.31 -14.54,-16.21 -39.8,-64.53 -52.77,-85.34 -17.84,-28.65 -32.34,-52.82 -51.54,-82.17 -36.07,-55.17 -72.41,-105.3 -110.9,-156.57 -38.62,-51.44 -80.28,-107.74 -120.83,-151.84 -19.96,-21.71 -43.02,-48.48 -62.22,-71.68 -19.57,-23.66 -44.16,-45.95 -64.87,-68.93 -76.36,-84.78 -189.11,-183.28 -281.51,-258.79 -527.54,-431.18 -1235.53,-705.93 -2015.15,-683.26 -749.74,21.8 -1453.67,328.74 -1933.86,764.54 -80.45,73.01 -143.56,141.87 -207.08,199.5 -23.35,21.2 -39.91,47 -62.91,70.76 -40.66,41.97 -86.35,99.77 -124.17,148.84 -79.16,102.75 -150.23,203.6 -217.89,317.13 -11.06,18.56 -85.45,157.98 -99.55,170.04l-0.02 -0.04z"/>
   </clipPath>
   <clipPath id="id2">
    <path d="M3976.2 7010.24c16.65,-15.67 437.52,-704.55 470.08,-757.86l156.37 -256.13c-19.61,-28.38 -177.8,-118.26 -204.84,-132.75 -87.59,-46.96 -163.5,-67.3 -274.52,-30.44 -156.88,52.09 -279.8,207.1 -358.38,321.07 -84.78,122.98 -189.61,318.66 -131.76,517.32 26.54,91.1 85.73,155.96 140.46,201.48 35.87,29.86 156.54,120.34 202.57,137.29l0.02 0.02z"/>
   </clipPath>
   <clipPath id="id3">
    <path d="M5403.72 3585.43c7.09,45.81 -47.29,209.29 88.62,338.37 32.36,30.73 215.19,158.81 266.69,172.34l280.67 -442.71 177.24 -285.02c28.21,-44.02 164.39,-254.34 175.86,-282.68 -39.48,-39.02 -230.06,-134.96 -300.31,-152.2 -332.12,-81.52 -581.34,300.82 -662.06,563.05l-26.71 88.85z"/>
   </clipPath>
 </defs>
 <g id="Слой_x0020_1">
  <metadata id="CorelCorpID_0Corel-Layer"/>
 </g>
 <g id="Слой_x0020_1_0">
  <metadata id="CorelCorpID_1Corel-Layer"/>
  <g>
  </g>
  <g style="clip-path:url(#id0)">
   <g id="_2444986726640">
    <rect class="fil0" x="-9923.35" y="-5063.25" width="30208.52" height="20496.29"/>
   </g>
  </g>
  <path class="fil1" d="M15.26 5396.55c4.43,132.82 28.54,382.63 44.32,501.09 23.45,175.84 58.99,355.73 101.22,524.76 39.97,160.02 86.13,327.42 143.36,482.58 28.03,75.99 56.08,150.12 85.55,224.79 30.66,77.72 130.52,307.86 170.16,375.56 10.83,18.48 18.54,33.72 27.85,52.39l112.09 203.58c9.22,16.12 18.93,32.09 27.05,47.86 37.07,71.92 133.71,222.04 182.63,288.18l97.03 138.39c23.1,30.91 45.73,56.73 67.01,88.16l103.92 131.48c12.28,14.07 25.56,30.24 36.26,44.01 45.56,58.61 97.24,111.23 146.02,169.63 44.13,52.78 177.14,182.38 232.49,238.35 16.04,16.25 24.03,20.63 40.11,34.8l164.54 151.11c15.51,11.88 27.04,23.38 43.56,36.69 29.04,23.46 55.12,47.47 84.1,71.07 29.37,23.92 57.44,44.46 87.07,68.1 29.85,23.82 56.39,43.53 87.97,67.19 102.31,76.7 213.23,156.49 323.62,222.1 18.11,10.8 30.47,19.44 49.56,30.72 34.36,20.3 65.42,42.8 99.91,60.58 35.2,18.15 62.94,38.19 98.1,57.06l105.27 55.23c18.33,9.04 30.77,17.86 48.05,26.86 121.97,63.48 249.78,120.85 376.84,174.23 115.27,48.44 226.04,86.84 344.13,126.69 41.29,13.94 72.92,25.88 116.83,38.34 42.07,11.94 77.03,24.56 119.95,35.2 146.9,36.36 217.46,57.85 380.34,90.5 133.65,26.79 269.15,52.1 405.67,65.13 149.61,14.29 291.23,31.6 444.57,31.6l331.7 0c56.88,0 98.41,-5.39 149.97,-5.2l286.51 -23.82c327.63,-44.65 593.84,-98.63 904.19,-187.23 119.29,-34.07 234.18,-75.58 349.26,-121.57 36.18,-14.46 73.46,-28.01 112.38,-42.78 73.22,-27.76 146.86,-63.29 218.3,-97.38l105.31 -49.85c36.52,-17.43 67.91,-32.63 102.07,-53.09l301 -169.83c97.02,-57.36 191.33,-123.27 284.22,-186.61l132.61 -97.44c84.08,-58.21 163.11,-126.33 241.32,-192.05l123.12 -106.92c78.19,-65.37 373.95,-366.07 443.4,-455.45 67.54,-86.91 145.45,-166.69 207.7,-257.76l101.65 -139.09c43.4,-62.86 84.15,-121 125.23,-185.08 21.06,-32.85 38.98,-63.76 59.93,-95.22l87.26 -148.18c11.66,-19.49 17.53,-31.43 28.71,-51.54 94.31,-169.83 179.33,-347.36 254.71,-526.42 161.36,-383.19 278.91,-821.14 335.81,-1231.82l26.11 -203.95c2.09,-28.01 5.14,-51.11 5.74,-74.51 0.82,-31.6 4.68,-42.88 5.36,-69.53 2.08,-81.17 10.64,-146.78 10.64,-230.12l0 -326.37c0,-56.88 -5.4,-98.4 -5.2,-149.97 0.35,-90.87 -29.35,-330.94 -42.65,-428.16 -40.79,-298.46 -140.82,-724.33 -248.68,-1003.3 -36.3,-93.88 -69.44,-189.89 -110.17,-280.4 -8.54,-18.98 -15.84,-33.11 -25.2,-55.05 -16.56,-38.73 -31.83,-75.38 -49.63,-110.87 -34.95,-69.67 -65.08,-138.43 -103.38,-206.96 -19.72,-35.27 -35.33,-65.24 -53.5,-101.64 -38.75,-77.61 -154.6,-264.72 -206.98,-338.76 -11.08,-15.66 -19.41,-32.05 -30.98,-49.27 -22.27,-33.19 -42.34,-63.11 -66.04,-94.46l-200.25 -265.24c-51.87,-66.39 -109.85,-125.89 -162.04,-191.08l-58.27 -64.76c-74.63,-73.75 -154.63,-172.29 -233.02,-237.8l-120.06 -109.98c-86.33,-84.04 -209.2,-179.64 -300.94,-250.13l-248.54 -179.47c-167.42,-111.61 -339.55,-219.11 -520.17,-309.11l-210.51 -105.14c-146.26,-65.15 -295.33,-123.66 -445.53,-180.46 -38.01,-14.39 -80.34,-26.11 -116.86,-38.29 -39.45,-13.16 -77.21,-27.21 -117.02,-38.12l-121.95 -33.2c-40.3,-11.06 -81.38,-23 -126.28,-34.2 -215.6,-53.78 -572.33,-124.75 -811.21,-130.44 -44.22,-1.07 -97.87,-11.32 -144.27,-10.89 -52.07,0.49 -97.14,-5.26 -155.25,-5.26l-8.85 0c-185.86,0.04 -359.45,1.69 -542.53,15.72 -103.31,7.92 -189.82,14.6 -287,28.68 -430.38,62.41 -843.54,171.82 -1245.21,333.12l-164.33 71.07c-91.05,36.26 -175.86,83.05 -263.2,127.37 -19.82,10.05 -27.88,16.83 -48.01,26.89 -86.23,43.07 -172.13,89.92 -252.91,142.99 -34.32,22.56 -65.19,39.45 -99.53,60.98l-278.69 192.14c-110.73,83.13 -249.28,187.01 -350.3,281.02l-163.11 152.55c-13.96,13.96 -25.7,27.33 -40.16,40.09 -44.44,39.13 -147.66,141.69 -189.06,190.81l-7.26 8.79c-70.78,84.68 -149.23,160.58 -215.43,250.06 -23.64,31.97 -47.83,58.99 -71.15,89.35 -165.59,215.52 -268.3,383.35 -407.63,614.26l-163.01 313.17c-62.8,124.57 -111.02,253.22 -163.04,382.68 -78.47,195.32 -138.75,396.86 -189.75,602.09 -63.36,254.95 -117.6,544.61 -130.55,816.43 -4.81,101.31 -15.99,195.27 -15.99,299.65l0 337.38 -0.08 -0.08z"/>
  <path class="fil2" d="M2571.97 3668.54c-2.91,20.65 -73.03,158.87 -87.84,193.68 -28.3,66.51 -54.26,130.69 -78.35,199.7 -162.72,466.04 -221.85,972.93 -152.02,1468.75 153.71,1091.62 905.88,2139.08 1952.69,2519.98 138.24,50.28 296.01,89.49 454.22,108.57 184.66,22.25 313.02,-50 363.39,-184.55 55,-146.86 13.84,-331.03 -35.87,-465.21 -68.59,-185.05 -169.86,-336.48 -183.69,-373.58 24.39,-17.22 86.49,-26.54 118.75,-37.29 101.71,-33.88 221.44,-95.53 305.89,-154.45 95.88,-66.92 253.18,-201.18 330.56,-284.56 24.95,-26.86 50.73,-49.05 78.84,-76.35l217.25 -242.89c308.91,-381.69 499.91,-678.17 725.16,-1120.74 129.29,-254.02 258,-591.18 330,-892.85 74.56,-365.66 53.54,-692.9 -168.17,-995.34 -36.01,-49.11 -156.28,-188.57 -203.78,-205.93 -43.35,51.49 -305.15,516.62 -334.62,537.02 -4.13,26.83 -51.42,91.47 -69.34,121.5 -23.16,38.85 -48.24,79.6 -72.62,119.84 -25.73,42.47 -47.62,77.24 -72.98,119.83 -18.01,30.27 -61.63,92.37 -71.16,121.45l58.64 53.79c59.6,59.16 92.48,128.48 106.19,219.62 20.71,137.77 -21.37,253.07 -62.14,364.11 -39.8,108.38 -87.42,205.29 -135.54,303.13 -150.31,305.52 -315.73,526.61 -537.1,779.25 -105.54,120.45 -261.95,233.88 -436.01,222.7 -77.43,-4.97 -107.58,-27.99 -165.2,-46.94 -26.87,37.51 -54.69,86.93 -80.41,127.19 -62.66,98.08 -545.87,870.44 -549.48,887.69 92.58,56.07 281.12,97.67 406.16,100.47 16.28,42.02 66.23,120.26 90.66,165.92 57.38,107.35 247.9,465.77 133.96,548.19 -124.45,90.04 -654.73,-155.14 -754.42,-211.56 -215.69,-122.01 -406.52,-256.19 -578.4,-427.19 -165.71,-164.86 -301.09,-328.9 -447.35,-558.36 -439.49,-689.58 -581.1,-1606.08 -311.63,-2435.66 39.56,-121.82 89.31,-251.75 144.02,-359 26.26,-51.51 154.51,-300.53 181.76,-316.57 16.83,-41.77 78.88,-121.41 107.3,-159.16 96.28,-127.93 251.62,-301.06 372.61,-403.36l142.17 -120.07c46.25,-36.24 95.75,-71.25 148.73,-107.92 823.16,-569.47 1923.57,-638.06 2839.31,-161.41 248.08,129.15 551.89,353.11 737.55,562.56 128.03,144.43 230.38,262.44 337.32,438.54 117.47,193.4 267.49,491.57 319.56,720.05 148.72,570.99 149.12,1078.27 -20.19,1637.15 -112.73,372.08 -304.98,701.63 -543.27,986.94l-110.89 124.46c-64.8,69.63 -167.7,162.21 -241.65,223.87 -281.31,234.56 -631.09,422.5 -996.9,528.06 -122.32,35.32 -242.9,72.59 -372.05,98.08 -111.2,21.93 -314.84,25.18 -382.9,83.12 -43.97,37.43 -46.82,126.73 -6.15,178.29 36.84,46.73 115.15,46.84 188.55,45.52 146.51,-2.58 275.37,-20.89 410.9,-52.97 522.61,-123.78 938.26,-327.17 1279.84,-598.21 769.57,-610.63 1224.95,-1535.2 1194.41,-2562.94 -11.88,-399.61 -99.99,-798.23 -254.44,-1153.84 -56.28,-129.6 -112.46,-218.99 -154.56,-312.31 -14.54,-16.21 -39.8,-64.53 -52.77,-85.34 -17.84,-28.65 -32.34,-52.82 -51.54,-82.17 -36.07,-55.17 -72.41,-105.3 -110.9,-156.57 -38.62,-51.44 -80.28,-107.74 -120.83,-151.84 -19.96,-21.71 -43.02,-48.48 -62.22,-71.68 -19.57,-23.66 -44.16,-45.95 -64.87,-68.93 -76.36,-84.78 -189.11,-183.28 -281.51,-258.79 -527.54,-431.18 -1235.53,-705.93 -2015.15,-683.26 -749.74,21.8 -1453.67,328.74 -1933.86,764.54 -80.45,73.01 -143.56,141.87 -207.08,199.5 -23.35,21.2 -39.91,47 -62.91,70.76 -40.66,41.97 -86.35,99.77 -124.17,148.84 -79.16,102.75 -150.23,203.6 -217.89,317.13 -11.06,18.56 -85.45,157.98 -99.55,170.04l-0.02 -0.04z"/>
  <g>
  </g>
  <g style="clip-path:url(#id1)">
   <g id="_2444986717232">
    <rect class="fil0" x="-9798.54" y="-5132.02" width="30208.52" height="20496.29"/>
    <rect class="fil2 str0" x="-1646.35" y="-1522.36" width="13905.24" height="13278.15"/>
   </g>
  </g>
  <path class="fil1" d="M2571.97 3668.54c-2.91,20.65 -73.03,158.87 -87.84,193.68 -28.3,66.51 -54.26,130.69 -78.35,199.7 -162.72,466.04 -221.85,972.93 -152.02,1468.75 153.71,1091.62 905.88,2139.08 1952.69,2519.98 138.24,50.28 296.01,89.49 454.22,108.57 184.66,22.25 313.02,-50 363.39,-184.55 55,-146.86 13.84,-331.03 -35.87,-465.21 -68.59,-185.05 -169.86,-336.48 -183.69,-373.58 24.39,-17.22 86.49,-26.54 118.75,-37.29 101.71,-33.88 221.44,-95.53 305.89,-154.45 95.88,-66.92 253.18,-201.18 330.56,-284.56 24.95,-26.86 50.73,-49.05 78.84,-76.35l217.25 -242.89c308.91,-381.69 499.91,-678.17 725.16,-1120.74 129.29,-254.02 258,-591.18 330,-892.85 74.56,-365.66 53.54,-692.9 -168.17,-995.34 -36.01,-49.11 -156.28,-188.57 -203.78,-205.93 -43.35,51.49 -305.15,516.62 -334.62,537.02 -4.13,26.83 -51.42,91.47 -69.34,121.5 -23.16,38.85 -48.24,79.6 -72.62,119.84 -25.73,42.47 -47.62,77.24 -72.98,119.83 -18.01,30.27 -61.63,92.37 -71.16,121.45l58.64 53.79c59.6,59.16 92.48,128.48 106.19,219.62 20.71,137.77 -21.37,253.07 -62.14,364.11 -39.8,108.38 -87.42,205.29 -135.54,303.13 -150.31,305.52 -315.73,526.61 -537.1,779.25 -105.54,120.45 -261.95,233.88 -436.01,222.7 -77.43,-4.97 -107.58,-27.99 -165.2,-46.94 -26.87,37.51 -54.69,86.93 -80.41,127.19 -62.66,98.08 -545.87,870.44 -549.48,887.69 92.58,56.07 281.12,97.67 406.16,100.47 16.28,42.02 66.23,120.26 90.66,165.92 57.38,107.35 247.9,465.77 133.96,548.19 -124.45,90.04 -654.73,-155.14 -754.42,-211.56 -215.69,-122.01 -406.52,-256.19 -578.4,-427.19 -165.71,-164.86 -301.09,-328.9 -447.35,-558.36 -439.49,-689.58 -581.1,-1606.08 -311.63,-2435.66 39.56,-121.82 89.31,-251.75 144.02,-359 26.26,-51.51 154.51,-300.53 181.76,-316.57 16.83,-41.77 78.88,-121.41 107.3,-159.16 96.28,-127.93 251.62,-301.06 372.61,-403.36l142.17 -120.07c46.25,-36.24 95.75,-71.25 148.73,-107.92 823.16,-569.47 1923.57,-638.06 2839.31,-161.41 248.08,129.15 551.89,353.11 737.55,562.56 128.03,144.43 230.38,262.44 337.32,438.54 117.47,193.4 267.49,491.57 319.56,720.05 148.72,570.99 149.12,1078.27 -20.19,1637.15 -112.73,372.08 -304.98,701.63 -543.27,986.94l-110.89 124.46c-64.8,69.63 -167.7,162.21 -241.65,223.87 -281.31,234.56 -631.09,422.5 -996.9,528.06 -122.32,35.32 -242.9,72.59 -372.05,98.08 -111.2,21.93 -314.84,25.18 -382.9,83.12 -43.97,37.43 -46.82,126.73 -6.15,178.29 36.84,46.73 115.15,46.84 188.55,45.52 146.51,-2.58 275.37,-20.89 410.9,-52.97 522.61,-123.78 938.26,-327.17 1279.84,-598.21 769.57,-610.63 1224.95,-1535.2 1194.41,-2562.94 -11.88,-399.61 -99.99,-798.23 -254.44,-1153.84 -56.28,-129.6 -112.46,-218.99 -154.56,-312.31 -14.54,-16.21 -39.8,-64.53 -52.77,-85.34 -17.84,-28.65 -32.34,-52.82 -51.54,-82.17 -36.07,-55.17 -72.41,-105.3 -110.9,-156.57 -38.62,-51.44 -80.28,-107.74 -120.83,-151.84 -19.96,-21.71 -43.02,-48.48 -62.22,-71.68 -19.57,-23.66 -44.16,-45.95 -64.87,-68.93 -76.36,-84.78 -189.11,-183.28 -281.51,-258.79 -527.54,-431.18 -1235.53,-705.93 -2015.15,-683.26 -749.74,21.8 -1453.67,328.74 -1933.86,764.54 -80.45,73.01 -143.56,141.87 -207.08,199.5 -23.35,21.2 -39.91,47 -62.91,70.76 -40.66,41.97 -86.35,99.77 -124.17,148.84 -79.16,102.75 -150.23,203.6 -217.89,317.13 -11.06,18.56 -85.45,157.98 -99.55,170.04l-0.02 -0.04z"/>
  <path class="fil1" d="M2571.97 3668.54c-2.91,20.65 -73.03,158.87 -87.84,193.68 -28.3,66.51 -54.26,130.69 -78.35,199.7 -162.72,466.04 -221.85,972.93 -152.02,1468.75 153.71,1091.62 905.88,2139.08 1952.69,2519.98 138.24,50.28 296.01,89.49 454.22,108.57 184.66,22.25 313.02,-50 363.39,-184.55 55,-146.86 13.84,-331.03 -35.87,-465.21 -68.59,-185.05 -169.86,-336.48 -183.69,-373.58 24.39,-17.22 86.49,-26.54 118.75,-37.29 101.71,-33.88 221.44,-95.53 305.89,-154.45 95.88,-66.92 253.18,-201.18 330.56,-284.56 24.95,-26.86 50.73,-49.05 78.84,-76.35l217.25 -242.89c308.91,-381.69 499.91,-678.17 725.16,-1120.74 129.29,-254.02 258,-591.18 330,-892.85 74.56,-365.66 53.54,-692.9 -168.17,-995.34 -36.01,-49.11 -156.28,-188.57 -203.78,-205.93 -43.35,51.49 -305.15,516.62 -334.62,537.02 -4.13,26.83 -51.42,91.47 -69.34,121.5 -23.16,38.85 -48.24,79.6 -72.62,119.84 -25.73,42.47 -47.62,77.24 -72.98,119.83 -18.01,30.27 -61.63,92.37 -71.16,121.45l58.64 53.79c59.6,59.16 92.48,128.48 106.19,219.62 20.71,137.77 -21.37,253.07 -62.14,364.11 -39.8,108.38 -87.42,205.29 -135.54,303.13 -150.31,305.52 -315.73,526.61 -537.1,779.25 -105.54,120.45 -261.95,233.88 -436.01,222.7 -77.43,-4.97 -107.58,-27.99 -165.2,-46.94 -26.87,37.51 -54.69,86.93 -80.41,127.19 -62.66,98.08 -545.87,870.44 -549.48,887.69 92.58,56.07 281.12,97.67 406.16,100.47 16.28,42.02 66.23,120.26 90.66,165.92 57.38,107.35 247.9,465.77 133.96,548.19 -124.45,90.04 -654.73,-155.14 -754.42,-211.56 -215.69,-122.01 -406.52,-256.19 -578.4,-427.19 -165.71,-164.86 -301.09,-328.9 -447.35,-558.36 -439.49,-689.58 -581.1,-1606.08 -311.63,-2435.66 39.56,-121.82 89.31,-251.75 144.02,-359 26.26,-51.51 154.51,-300.53 181.76,-316.57 16.83,-41.77 78.88,-121.41 107.3,-159.16 96.28,-127.93 251.62,-301.06 372.61,-403.36l142.17 -120.07c46.25,-36.24 95.75,-71.25 148.73,-107.92 823.16,-569.47 1923.57,-638.06 2839.31,-161.41 248.08,129.15 551.89,353.11 737.55,562.56 128.03,144.43 230.38,262.44 337.32,438.54 117.47,193.4 267.49,491.57 319.56,720.05 148.72,570.99 149.12,1078.27 -20.19,1637.15 -112.73,372.08 -304.98,701.63 -543.27,986.94l-110.89 124.46c-64.8,69.63 -167.7,162.21 -241.65,223.87 -281.31,234.56 -631.09,422.5 -996.9,528.06 -122.32,35.32 -242.9,72.59 -372.05,98.08 -111.2,21.93 -314.84,25.18 -382.9,83.12 -43.97,37.43 -46.82,126.73 -6.15,178.29 36.84,46.73 115.15,46.84 188.55,45.52 146.51,-2.58 275.37,-20.89 410.9,-52.97 522.61,-123.78 938.26,-327.17 1279.84,-598.21 769.57,-610.63 1224.95,-1535.2 1194.41,-2562.94 -11.88,-399.61 -99.99,-798.23 -254.44,-1153.84 -56.28,-129.6 -112.46,-218.99 -154.56,-312.31 -14.54,-16.21 -39.8,-64.53 -52.77,-85.34 -17.84,-28.65 -32.34,-52.82 -51.54,-82.17 -36.07,-55.17 -72.41,-105.3 -110.9,-156.57 -38.62,-51.44 -80.28,-107.74 -120.83,-151.84 -19.96,-21.71 -43.02,-48.48 -62.22,-71.68 -19.57,-23.66 -44.16,-45.95 -64.87,-68.93 -76.36,-84.78 -189.11,-183.28 -281.51,-258.79 -527.54,-431.18 -1235.53,-705.93 -2015.15,-683.26 -749.74,21.8 -1453.67,328.74 -1933.86,764.54 -80.45,73.01 -143.56,141.87 -207.08,199.5 -23.35,21.2 -39.91,47 -62.91,70.76 -40.66,41.97 -86.35,99.77 -124.17,148.84 -79.16,102.75 -150.23,203.6 -217.89,317.13 -11.06,18.56 -85.45,157.98 -99.55,170.04l-0.02 -0.04z"/>
  <path class="fil2" d="M3976.2 7010.24c16.65,-15.67 437.52,-704.55 470.08,-757.86l156.37 -256.13c-19.61,-28.38 -177.8,-118.26 -204.84,-132.75 -87.59,-46.96 -163.5,-67.3 -274.52,-30.44 -156.88,52.09 -279.8,207.1 -358.38,321.07 -84.78,122.98 -189.61,318.66 -131.76,517.32 26.54,91.1 85.73,155.96 140.46,201.48 35.87,29.86 156.54,120.34 202.57,137.29l0.02 0.02z"/>
  <g>
  </g>
  <g style="clip-path:url(#id2)">
   <g id="_2444986709216">
    <rect class="fil0" x="-9798.54" y="-5132.02" width="30208.52" height="20496.29"/>
    <rect class="fil2" x="-634.56" y="1531.68" width="9488.28" height="9760.93"/>
   </g>
  </g>
  <path class="fil1" d="M3976.2 7010.24c16.65,-15.67 437.52,-704.55 470.08,-757.86l156.37 -256.13c-19.61,-28.38 -177.8,-118.26 -204.84,-132.75 -87.59,-46.96 -163.5,-67.3 -274.52,-30.44 -156.88,52.09 -279.8,207.1 -358.38,321.07 -84.78,122.98 -189.61,318.66 -131.76,517.32 26.54,91.1 85.73,155.96 140.46,201.48 35.87,29.86 156.54,120.34 202.57,137.29l0.02 0.02z"/>
  <path class="fil1" d="M3976.2 7010.24c16.65,-15.67 437.52,-704.55 470.08,-757.86l156.37 -256.13c-19.61,-28.38 -177.8,-118.26 -204.84,-132.75 -87.59,-46.96 -163.5,-67.3 -274.52,-30.44 -156.88,52.09 -279.8,207.1 -358.38,321.07 -84.78,122.98 -189.61,318.66 -131.76,517.32 26.54,91.1 85.73,155.96 140.46,201.48 35.87,29.86 156.54,120.34 202.57,137.29l0.02 0.02z"/>
  <path class="fil2" d="M5403.72 3585.43c7.09,45.81 -47.29,209.29 88.62,338.37 32.36,30.73 215.19,158.81 266.69,172.34l280.67 -442.71 177.24 -285.02c28.21,-44.02 164.39,-254.34 175.86,-282.68 -39.48,-39.02 -230.06,-134.96 -300.31,-152.2 -332.12,-81.52 -581.34,300.82 -662.06,563.05l-26.71 88.85z"/>
  <g>
  </g>
  <g style="clip-path:url(#id3)">
   <g id="_2444986705328">
    <rect class="fil0" x="-9798.54" y="-5132.02" width="30208.52" height="20496.29"/>
    <rect class="fil2" x="1151.65" y="-1371.23" width="9488.28" height="9760.93"/>
   </g>
  </g>
  <path class="fil1" d="M5403.72 3585.43c7.09,45.81 -47.29,209.29 88.62,338.37 32.36,30.73 215.19,158.81 266.69,172.34l280.67 -442.71 177.24 -285.02c28.21,-44.02 164.39,-254.34 175.86,-282.68 -39.48,-39.02 -230.06,-134.96 -300.31,-152.2 -332.12,-81.52 -581.34,300.82 -662.06,563.05l-26.71 88.85z"/>
  <path class="fil1" d="M5403.72 3585.43c7.09,45.81 -47.29,209.29 88.62,338.37 32.36,30.73 215.19,158.81 266.69,172.34l280.67 -442.71 177.24 -285.02c28.21,-44.02 164.39,-254.34 175.86,-282.68 -39.48,-39.02 -230.06,-134.96 -300.31,-152.2 -332.12,-81.52 -581.34,300.82 -662.06,563.05l-26.71 88.85z"/>
 </g>
</svg>
