<svg width="259" height="214" viewBox="0 0 259 214" fill="none" xmlns="http://www.w3.org/2000/svg">
<path d="M3.90042 99.4869C30.3196 84.9344 59.8107 72.7888 87.3658 60.581C134.771 40.5857 182.365 20.9369 230.439 2.64406C239.792 -0.47286 256.598 -3.52104 258.246 10.3403C257.344 29.9609 253.632 49.4665 251.086 68.9722C244.623 111.867 237.154 154.615 229.87 197.368C227.361 211.609 209.521 218.982 198.106 209.868C170.673 191.338 143.03 172.989 115.947 154.029C107.076 145.015 115.302 132.07 123.225 125.632C145.82 103.366 169.781 84.4476 191.195 61.0302C196.971 47.0813 179.904 58.8371 174.275 62.4389C143.343 83.7545 113.168 106.371 80.5566 125.105C63.8985 134.275 44.4832 126.438 27.8327 121.321C12.9033 115.14 -8.97217 108.912 3.90042 99.4869Z" fill="white"/>
</svg>
