<svg width="317" height="181" viewBox="0 0 317 181" fill="none" xmlns="http://www.w3.org/2000/svg">
<path fill-rule="evenodd" clip-rule="evenodd" d="M155.096 180.242H174.044C174.044 180.242 179.768 179.613 182.69 176.46C185.379 173.566 185.293 168.13 185.293 168.13C185.293 168.13 184.923 142.683 196.723 138.936C208.356 135.245 223.293 163.53 239.126 174.406C251.098 182.637 260.196 180.832 260.196 180.832L302.529 180.242C302.529 180.242 324.675 178.877 314.174 161.45C313.314 160.024 308.059 148.558 282.699 124.998C256.155 100.339 259.709 104.327 291.684 61.6731C311.158 35.6963 318.943 19.8371 316.511 13.0446C314.192 6.57518 299.87 8.28514 299.87 8.28514L252.204 8.58234C252.204 8.58234 248.671 8.09993 246.05 9.66776C243.489 11.2054 241.841 14.7891 241.841 14.7891C241.841 14.7891 234.297 34.8908 224.236 51.9862C203.011 88.0591 194.524 89.9629 191.056 87.7232C182.987 82.5028 185.001 66.7513 185.001 55.5612C185.001 20.6038 190.298 6.02817 174.685 2.25505C169.504 1.00165 165.691 0.174663 152.44 0.0411394C135.433 -0.135457 121.038 0.0928203 112.887 4.08992C107.465 6.74747 103.282 12.6699 105.829 13.0102C108.979 13.4323 116.115 14.9355 119.897 20.0912C124.782 26.7416 124.61 41.679 124.61 41.679C124.61 41.679 127.416 82.8302 118.055 87.9428C111.63 91.4489 102.817 84.2903 83.8943 51.5641C74.1985 34.8004 66.8783 16.2707 66.8783 16.2707C66.8783 16.2707 65.4668 12.8077 62.9492 10.9556C59.8938 8.71155 55.6247 7.99657 55.6247 7.99657L10.3304 8.29375C10.3304 8.29375 3.53088 8.48328 1.03485 11.4423C-1.18575 14.0741 0.858408 19.5184 0.858408 19.5184C0.858408 19.5184 36.3192 102.553 76.4708 144.398C113.287 182.762 155.096 180.242 155.096 180.242Z" fill="white"/>
</svg>
